<?xml version="1.0" encoding="UTF-8" standalone="no"?>
<!-- Created with Inkscape (http://www.inkscape.org/) -->

<svg
   xmlns:dc="http://purl.org/dc/elements/1.1/"
   xmlns:cc="http://creativecommons.org/ns#"
   xmlns:rdf="http://www.w3.org/1999/02/22-rdf-syntax-ns#"
   xmlns:svg="http://www.w3.org/2000/svg"
   xmlns="http://www.w3.org/2000/svg"
   xmlns:sodipodi="http://sodipodi.sourceforge.net/DTD/sodipodi-0.dtd"
   xmlns:inkscape="http://www.inkscape.org/namespaces/inkscape"
   id="svg6624"
   version="1.1"
   inkscape:version="0.48.4 r9939"
   width="420"
   height="420"
   sodipodi:docname="allergy_variant.png">
  <metadata
     id="metadata6630">
    <rdf:RDF>
      <cc:Work
         rdf:about="">
        <dc:format>image/svg+xml</dc:format>
        <dc:type
           rdf:resource="http://purl.org/dc/dcmitype/StillImage" />
        <dc:title></dc:title>
      </cc:Work>
    </rdf:RDF>
  </metadata>
  <defs
     id="defs6628" />
  <sodipodi:namedview
     pagecolor="#ffffff"
     bordercolor="#666666"
     borderopacity="1"
     objecttolerance="10"
     gridtolerance="10"
     guidetolerance="10"
     inkscape:pageopacity="0"
     inkscape:pageshadow="2"
     inkscape:window-width="1920"
     inkscape:window-height="1021"
     id="namedview6626"
     showgrid="false"
     inkscape:zoom="1.383909"
     inkscape:cx="25.918818"
     inkscape:cy="196.9669"
     inkscape:window-x="0"
     inkscape:window-y="27"
     inkscape:window-maximized="1"
     inkscape:current-layer="svg6624" />
  <path
     inkscape:connector-curvature="0"
     id="path6644"
     d="m 205.96715,332.37956 c -0.33992,-0.55 0.26038,-1 1.33399,-1 2.38166,0 3.43791,-2.30069 1.83787,-4.00314 -0.90811,-0.96623 -0.83426,-1.14381 0.32814,-0.78899 2.13673,0.65222 2.37901,3.27026 0.47852,5.17075 -1.85985,1.85985 -3.09398,2.0526 -3.97852,0.62138 z m 0.48354,-33.57931 c -0.63705,-3.06861 -0.92771,-5.80986 -0.64592,-6.09165 0.28179,-0.28178 0.8222,1.5539 1.20091,4.07931 0.37871,2.52541 1.08746,4.59165 1.57501,4.59165 0.48755,0 0.88646,0.675 0.88646,1.5 0,3.65015 -1.96292,0.99561 -3.01646,-4.07931 z m 8.01646,-1.23988 c 0,-0.45055 2.12796,-0.69383 4.72879,-0.54062 3.70154,0.21805 5.22217,-0.18494 7,-1.85513 2.6539,-2.49321 2.89698,-3.78506 0.71219,-3.78506 -2.36258,0 -0.81708,-1.69495 2.04424,-2.24193 3.6052,-0.68917 3.24075,1.71596 -0.88522,5.84193 -2.97778,2.97778 -4.03333,3.4 -8.5,3.4 -2.805,0 -5.1,-0.36863 -5.1,-0.81919 z m -50.768,-3.18081 c 0,-1.925 0.2058,-2.7125 0.45733,-1.75 0.25152,0.9625 0.25152,2.5375 0,3.5 -0.25153,0.9625 -0.45733,0.175 -0.45733,-1.75 z m 53.768,-3.64098 c 0,-1.36813 -0.26667,-1.49235 -1.2,-0.55902 -2.52151,2.52151 -3.04386,1.06316 -0.55517,-1.55 2.23141,-2.34302 2.42946,-3.00669 1.33821,-4.48446 -0.70444,-0.95395 -1.59758,-1.41766 -1.98477,-1.03048 -0.38719,0.38719 -0.40197,-0.083 -0.0329,-1.04493 0.6283,-1.63732 0.75006,-1.64096 1.90825,-0.057 0.69411,0.94925 1.91609,1.43133 2.78397,1.09829 0.85076,-0.32647 1.85333,-0.28708 2.22794,0.0875 0.3746,0.37461 0.9811,0.71996 1.34776,0.76747 1.59575,0.20673 4.16667,1.69344 4.16667,2.40951 0,1.31701 -3.42446,0.59616 -4.731,-0.99588 -1.09422,-1.33333 -1.34251,-1.33333 -2.23468,0 -0.55203,0.825 -1.01059,2.48594 -1.01901,3.69098 -0.008,1.20504 -0.46531,2.4691 -1.01531,2.80902 -0.55,0.33992 -1,-0.17352 -1,-1.14098 z m -6.82332,-2.01454 c 0.17782,-0.91054 1.14969,-1.77643 2.1597,-1.9242 1.74946,-0.25595 1.75396,-0.17758 0.095,1.65553 -2.13401,2.35805 -2.67538,2.42256 -2.25472,0.26867 z m 8.31053,-18.35862 c -1.08165,-1.1952 -2.53352,-1.78855 -3.57083,-1.45932 -0.96144,0.30515 -2.03749,0.0865 -2.39124,-0.48586 -1.35568,-2.19354 4.22476,-0.93581 6.47486,1.45932 1.29175,1.375 2.11493,2.5 1.8293,2.5 -0.28563,0 -1.33957,-0.90636 -2.34209,-2.01414 z M 67.467149,238.03455 c 0,-0.73976 0.889388,-2.1499 1.976419,-3.13365 1.08703,-0.98375 1.738658,-2.17334 1.448062,-2.64353 -0.290596,-0.4702 0.243836,-0.55858 1.187626,-0.19642 1.079852,0.41438 1.473805,0.26664 1.0627,-0.39855 -0.371516,-0.60112 0.09687,-0.9979 1.085955,-0.91994 0.956581,0.0754 1.632136,-0.40921 1.501234,-1.07691 -0.146745,-0.74852 0.395446,-0.97094 1.414045,-0.58006 1.100895,0.42245 1.413184,0.24746 0.936066,-0.52454 -0.482508,-0.78071 -0.156417,-0.94376 1,-0.5 1.18061,0.45305 1.485616,0.28575 0.977608,-0.53623 -0.406106,-0.65709 -0.367426,-1.13027 0.08595,-1.05152 2.016305,0.35026 3.391796,-0.17546 2.831409,-1.08219 -0.362901,-0.58718 0.08575,-0.72119 1.105028,-0.33006 1.256381,0.48212 1.496745,0.30375 0.897429,-0.66596 -0.544189,-0.88052 -0.432171,-1.08565 0.334201,-0.61201 1.360153,0.84063 5.472017,-1.75433 4.430382,-2.79597 -0.392237,-0.39223 0.134446,-0.3879 1.170407,0.01 1.411678,0.54171 1.678493,0.39098 1.06501,-0.60166 -0.544189,-0.88052 -0.432171,-1.08565 0.334201,-0.61201 1.360153,0.84063 5.472017,-1.75433 4.430382,-2.79597 -0.392237,-0.39223 0.134446,-0.3879 1.170407,0.01 1.328499,0.50979 1.665969,0.37072 1.145189,-0.47193 -0.40611,-0.65709 -0.36743,-1.13027 0.0859,-1.05152 2.016311,0.35026 3.391801,-0.17546 2.831411,-1.08219 -0.3629,-0.58718 0.0858,-0.72119 1.10503,-0.33006 1.25638,0.48212 1.49674,0.30375 0.89743,-0.66596 -0.54419,-0.88052 -0.43218,-1.08565 0.3342,-0.61201 1.36015,0.84063 5.47201,-1.75433 4.43038,-2.79597 -0.39224,-0.39223 0.0657,-0.41427 1.0177,-0.049 1.25137,0.48019 1.5766,0.26219 1.17401,-0.78694 -0.30627,-0.79812 0.14893,-2.03687 1.01155,-2.75278 1.32942,-1.10331 1.47243,-1.05154 0.93852,0.33979 -0.73351,1.9115 -0.43162,1.97811 3.019,0.66619 1.93874,-0.73711 2.5651,-0.65758 2.5651,0.32569 0,2.35165 -4.24549,5.28722 -25.499996,17.63213 -11.55,6.7084 -21.4275,12.60666 -21.95,13.10726 -1.418775,1.35929 -3.55,1.09824 -3.55,-0.43484 z m 24.637883,-13.30152 c 22.728618,-13.37841 25.085338,-14.90105 24.314058,-15.70889 -0.75996,-0.79598 -42.676755,23.60992 -45.312971,26.38331 -3.250546,3.41968 -1.014776,2.28317 20.998913,-10.67442 z m 243.112118,1.07456 c -3.73844,-2.02814 -3.51088,-2.87286 0.25,-0.92803 1.65,0.85325 3,1.7648 3,2.02568 0,0.6435 -0.10745,0.60721 -3.25,-1.09765 z m -26.25,-15.42803 c -1.65,-1.09275 -2.55,-1.97978 -2,-1.97117 1.00265,0.0157 6.43974,3.91294 5.5,3.94234 -0.275,0.009 -1.85,-0.87842 -3.5,-1.97117 z m -91.85234,-8.68567 c -1.22075,-1.22076 -0.65852,-5.31433 0.7299,-5.31433 0.75765,0 1.91555,-0.64825 2.57311,-1.44056 0.65756,-0.79231 1.85588,-1.18717 2.66294,-0.87747 0.90597,0.34765 2.98224,-1.0778 5.42688,-3.72583 4.89353,-5.30065 5.10359,-4.13461 0.46774,2.59643 -3.33515,4.8425 -10.49249,10.12984 -11.86057,8.76176 z m 5.49156,-3.22825 c 1.29843,-1.05266 2.13578,-2.13963 1.86078,-2.41549 -0.79081,-0.79329 -7,2.11717 -7,3.28114 0,1.65614 2.56065,1.22483 5.13922,-0.86565 z m -18.13922,-48.95722 c 0,-0.42913 1.125,-1.83711 2.5,-3.12886 1.375,-1.29175 2.5,-2.06564 2.5,-1.71977 0,0.34587 -1.125,1.75386 -2.5,3.12886 -1.375,1.375 -2.5,2.1489 -2.5,1.71977 z m 11.43709,-3.37886 -2.93709,-3.25 3.25,2.93709 c 3.02946,2.73778 3.70965,3.56291 2.93709,3.56291 -0.1721,0 -1.6346,-1.4625 -3.25,-3.25 z m -57.91195,-18.70932 c -0.32609,-0.52763 -0.0794,-1.78163 0.5483,-2.78667 0.83932,-1.34396 2.03867,-1.72258 4.53388,-1.43127 3.49118,0.40757 4.29832,1.87162 2.19268,3.97726 -1.43287,1.43287 -6.43575,1.59838 -7.27486,0.24068 z m 6.18497,-1.65599 c 0.20191,-0.614 -0.62462,-1.06348 -1.83885,-1 -1.21308,0.0634 -2.4055,0.71568 -2.64981,1.44946 -0.30214,0.90743 0.28599,1.22727 1.83884,1 1.25568,-0.18378 2.4481,-0.83604 2.64982,-1.44946 z m 90.28989,1.11531 c 0,-0.825 0.3375,-1.50719 0.75,-1.51597 0.4125,-0.009 2.28969,-1.37294 4.17154,-3.03146 2.5706,-2.26553 3.62377,-2.69679 4.23469,-1.73403 0.65613,1.03401 0.8161,1.02869 0.82846,-0.0276 0.008,-0.71996 0.46531,-1.0309 1.01531,-0.69098 0.55,0.33992 1,0.14148 1,-0.44098 0,-0.58246 0.3375,-1.00573 0.75,-0.9406 1.98515,0.31345 3.30695,-0.21726 2.75708,-1.10697 -0.3629,-0.58718 0.0858,-0.72119 1.10503,-0.33006 1.25638,0.48212 1.49674,0.30375 0.89743,-0.66596 -0.54419,-0.88052 -0.43218,-1.08565 0.3342,-0.61201 1.36015,0.84063 5.47201,-1.75433 4.43038,-2.79597 -0.39224,-0.39223 0.13445,-0.3879 1.17041,0.01 1.41167,0.54171 1.67849,0.39098 1.06501,-0.60166 -0.54419,-0.88052 -0.43218,-1.08565 0.3342,-0.61201 1.36015,0.84063 5.47201,-1.75433 4.43038,-2.79597 -0.39224,-0.39223 0.13445,-0.3879 1.17041,0.01 1.41167,0.54171 1.67849,0.39098 1.06501,-0.60166 -0.54419,-0.88052 -0.43218,-1.08565 0.3342,-0.61201 1.36015,0.84063 5.47201,-1.75433 4.43038,-2.79597 -0.39224,-0.39223 0.13445,-0.3879 1.17041,0.01 1.21791,0.46735 1.65269,0.34923 1.23028,-0.33425 -0.37152,-0.60112 0.0969,-0.9979 1.08595,-0.91994 0.95658,0.0754 1.63214,-0.40921 1.50124,-1.07691 -0.14675,-0.74852 0.39544,-0.97094 1.41404,-0.58006 1.1009,0.42245 1.41318,0.24746 0.93607,-0.52454 -0.48251,-0.78071 -0.15642,-0.94376 1,-0.5 1.25638,0.48212 1.49674,0.30375 0.89743,-0.66596 -0.54419,-0.880518 -0.43218,-1.085648 0.3342,-0.612008 1.19031,0.735658 5.53731,-1.68904 4.63886,-2.58749 -0.27758,-0.27758 1.18294,-0.23037 3.24559,0.10491 4.93977,0.80293 5.63847,3.555828 1.13128,4.457268 -1.77946,0.35589 -11.3633,5.3108 -21.29742,11.01092 -9.93413,5.70012 -20.30847,11.54446 -23.05409,12.98741 -5.61304,2.94888 -10.50796,3.47227 -10.50796,1.12252 z m 9.28984,-1.61894 c 2.31559,-1.16541 12.33628,-6.78371 22.2682,-12.4851 9.93192,-5.70139 19.49442,-10.86689 21.25,-11.47889 3.46619,-1.20832 4.28283,-2.917068 1.39411,-2.917068 -0.98882,0 -11.59534,5.596168 -23.57005,12.435928 -11.9747,6.83976 -23.05958,12.71869 -24.63305,13.06428 -1.57347,0.34559 -3.39705,1.27442 -4.0524,2.06407 -1.85804,2.2388 2.30741,1.85124 7.34319,-0.68322 z m -43.27927,-12.36833 c -1.63709,-1.97257 -0.56815,-4.51273 1.89903,-4.51273 1.0848,0 2.25502,-0.45734 2.60048,-1.01631 0.34546,-0.55897 1.03772,-0.76316 1.53835,-0.45376 0.50063,0.30941 1.85808,0.0553 3.01655,-0.56471 1.15847,-0.61999 2.32923,-0.90434 2.60169,-0.63189 1.12373,1.12373 -1.99253,4.79226 -5.66027,6.6634 -4.69398,2.3947 -4.45381,2.37403 -5.99583,0.516 z m 5.73943,-1.50177 c 3.80494,-2.31992 3.91256,-2.60443 1.24862,-3.30107 -1.10076,-0.28785 -1.77183,-0.15196 -1.49127,0.302 0.28055,0.45395 -0.84382,1.12274 -2.49862,1.48619 -2.95332,0.64866 -3.66595,1.51136 -2.34206,2.83525 0.98833,0.98833 1.5206,0.84987 5.08333,-1.32237 z M 104.01819,97.379562 c 2.03522,0 5.44896,1.82321 5.44896,2.910178 0,0.4619 -3.4208,3.04405 -5.18186,3.39627 -15.109164,9.86543 -1.60813,-6.153436 -0.2671,-6.306448 z m 2.06468,2.812758 c 0.90215,-1.459698 -0.24724,-2.064478 -2.54036,-1.336678 -2.73182,0.86705 -2.78833,3.523128 -0.0598,2.809588 1.10857,-0.28989 2.27864,-0.9527 2.60014,-1.47291 z m 81.38428,-6.125667 c 0,-0.1721 1.4625,-1.6346 3.25,-3.25 l 3.25,-2.937091 -2.93709,3.25 c -2.73778,3.029455 -3.56291,3.70965 -3.56291,2.937091 z m -18,-33.59521 c 0,-1.303181 0.88072,-2.472769 2.25,-2.987987 3.58994,-1.350781 71.00313,0.145625 71.48169,1.586717 0.29915,0.900807 -8.0785,1.282933 -34.41815,1.569904 -19.14745,0.208611 -35.82604,0.73782 -37.06354,1.17602 -1.88089,0.666026 -2.25,0.445439 -2.25,-1.344654 z m 38,-1.081764 33.5,-0.507444 -33,-0.501336 c -32.33101,-0.491174 -37.5,-0.204343 -37.5,2.080901 0,0.734307 0.61455,0.833875 1.75,0.283532 0.9625,-0.466515 16.825,-1.076558 35.25,-1.355653 z m -13.68883,-4.758325 c 8.14615,-0.168277 21.19615,-0.167889 29,8.63e-4 7.80386,0.168752 1.13883,0.306433 -14.81117,0.305959 -15.95,-4.75e-4 -22.33497,-0.138544 -14.18883,-0.306822 z"
     style="fill:#797979"
     sodipodi:nodetypes="ssssssscsssssssssssssssscssssccsccssscscccssccsscssscsssssssssscssssscsssccsscscccsssssssccsssssssssscsssssssssssssssssscsssscssssccssscsscsssscscccscccsccccssscsscsssscsssssssssssscccsssssssscscccscccsscssssssssscssssssss" />
  <path
     inkscape:connector-curvature="0"
     id="path6642"
     d="m 209.06518,351.43895 c 29.96968,-0.46442 36.42093,-0.81404 38,-2.05939 2.27196,-1.79179 3.67085,-3.7892 4.55229,-6.5 0.60885,-1.87245 0.65668,-1.85751 0.75,0.23422 0.0548,1.22883 -1.21292,3.70383 -2.81721,5.5 l -2.91689,3.26578 -36.83311,0.0594 -36.83311,0.0594 z m 43.85961,-41.04608 c 0.0367,-24.6654 0.24617,-28.52589 1.5617,-28.7789 0.83564,-0.16072 2.41064,0.42916 3.5,1.31084 1.08936,0.88169 1.34863,1.27517 0.57615,0.8744 -0.88988,-0.46168 -1.15747,-0.32896 -0.73031,0.36221 0.37081,0.59998 1.45284,1.04189 2.40451,0.98201 0.95167,-0.0599 12.08991,5.81876 24.75164,13.06363 23.67085,13.54414 27.69449,15.05799 31.68878,11.9225 1.43818,-1.12896 17.59396,-28.37696 32.16172,-54.2433 5.57103,-9.89184 7.85772,-11.82125 3.22777,-2.72346 -5.50079,10.80902 -30.96867,53.92534 -33.32326,56.41526 -5.27023,5.57312 -9.04573,4.43471 -35.2467,-10.62773 -11.2587,-6.47242 -21.85457,-11.99266 -23.54639,-12.2672 -5.64115,-0.91543 -5.92325,0.27762 -6.52561,27.5976 l -0.54237,24.59883 0.0424,-28.48669 z m -47.71745,20.23669 c -0.20782,-0.4125 -0.40411,-10.425 -0.4362,-22.25 -0.0321,-11.825 0.12598,-19.925 0.35126,-18 1.36158,11.63453 3.76963,17.58726 4.55095,11.25 0.18648,-1.5125 0.16016,3.325 -0.0585,10.75 -0.26159,8.8832 -0.87658,14.44046 -1.79831,16.25 -1.4592,2.86474 -1.97455,3.25976 -2.60921,2 z M 102.49883,312.08267 c -1.3421,-0.66911 -3.810781,-3.01353 -5.485945,-5.20984 -3.672853,-4.81545 -31.914274,-53.45807 -31.359388,-54.01295 0.214925,-0.21493 7.297286,11.55248 15.738579,26.14979 8.441293,14.59731 16.451443,27.85216 17.800333,29.45523 4.438451,5.2748 6.979111,4.48648 32.497351,-10.08332 12.52091,-7.14889 23.29301,-13.11139 23.938,-13.25 0.645,-0.13861 2.02539,-1.06719 3.06754,-2.0635 3.30395,-3.15865 5.2458,-1.80412 5.47702,3.82047 0.18252,4.44003 0.0905,4.68742 -0.83334,2.24101 -1.87347,-4.96104 -5.27556,-3.83499 -27.96232,9.25514 -11.44349,6.60282 -21.84205,12.38693 -23.10792,12.85357 -4.8763,1.79756 -7.41753,2.01719 -9.76991,0.8444 z m 119.64393,-20.45311 c 1.56901,-3.10071 3.08427,-4.7894 4.36399,-4.86346 2.63767,-0.15267 2.52393,0.21976 -1.60655,5.26047 -4.65899,5.68568 -5.75551,5.5278 -2.75744,-0.39701 z m -11.55961,1.12244 c -0.0638,-1.17015 0.6715,-2.74515 1.634,-3.5 1.52199,-1.19363 1.60116,-1.17701 0.60761,0.12756 -0.62832,0.825 -1.36362,2.4 -1.634,3.5 -0.46694,1.89963 -0.49743,1.89323 -0.60761,-0.12756 z m 3.54032,-0.1195 c -0.28982,-0.46895 0.38228,-1.42046 1.49357,-2.11447 1.74971,-1.09272 1.97559,-1.03013 1.68531,0.46698 -0.37428,1.93035 -2.36608,2.96262 -3.17888,1.64749 z m -2.25771,-6.65657 c -0.323,-0.84171 -0.35535,-2.10774 -0.0719,-2.81338 0.28346,-0.70564 0.5578,-0.15799 0.60965,1.21701 0.0751,1.99235 0.2911,2.19541 1.06363,1 0.58246,-0.90129 0.97549,-1.02463 0.98469,-0.30902 0.0244,1.89931 -1.94068,2.58729 -2.58608,0.90539 z m 4.93084,-4.18022 c -0.49177,-1.28154 -0.77916,-1.32925 -1.50571,-0.25 -0.55624,0.82627 -0.6474,-0.18831 -0.23955,-2.66615 1.21662,-7.39145 4.11288,-7.17738 5.12639,0.37892 0.45573,3.39768 0.26083,4.12108 -1.1103,4.12108 -0.91468,0 -1.93655,-0.71273 -2.27083,-1.58385 z m 12.92273,-1.91615 c 0.0111,-2.2 0.21589,-2.98225 0.45508,-1.73834 0.23919,1.24391 0.23011,3.04391 -0.0202,4 -0.25029,0.95609 -0.446,-0.0617 -0.4349,-2.26166 z m -17.08337,-5.5 c -0.15856,-5.20956 -0.0354,-5.50762 2.33201,-5.64422 2.53153,-0.14607 7.53226,4.52134 7.46877,6.97095 -0.0167,0.6453 -0.52267,0.27327 -1.12432,-0.82673 -3.09649,-5.6613 -7.46402,-4.98711 -8.11698,1.25297 -0.30564,2.92091 -0.42899,2.53443 -0.55948,-1.75297 z m -9.06243,-8.19098 c -0.0585,-1.48004 0.36807,-2.98421 0.94796,-3.3426 0.69329,-0.42848 0.46647,-1.54881 -0.66238,-3.27165 -1.6078,-2.45382 -1.45265,-2.4109 2.44566,0.67663 4.75883,3.76906 5.08752,4.3989 1.8748,3.59256 -1.83374,-0.46024 -2.50702,-0.0176 -3.39362,2.23095 l -1.10604,2.80509 z m 1.06936,-19.64068 c -4.49666,-4.30741 -8.17574,-8.43241 -8.17574,-9.16666 0,-0.73426 0.1125,-1.13399 0.25,-0.88829 0.1375,0.2457 4.06507,4.3707 8.72792,9.16667 4.66286,4.79596 8.22944,8.71994 7.92574,8.71994 -0.3037,0 -4.23126,-3.52424 -8.72792,-7.83166 z m -2.92356,-12.66834 c 0.0111,-2.2 0.21589,-2.98225 0.45508,-1.73834 0.23919,1.24391 0.23011,3.04391 -0.0202,4 -0.25029,0.95609 -0.446,-0.0617 -0.4349,-2.26166 z m -0.0202,-10.5 c 0,-1.925 0.2058,-2.7125 0.45733,-1.75 0.25152,0.9625 0.25152,2.5375 0,3.5 -0.25153,0.9625 -0.45733,0.175 -0.45733,-1.75 z m -10.46774,-10.58881 c 4.02261,-5.79968 7.23574,-6.84419 7.23574,-2.35217 0,1.4369 -0.69374,1.94098 -2.67126,1.94098 -1.46919,0 -3.57927,0.7875 -4.68906,1.75 -1.89773,1.64587 -1.89032,1.5662 0.12458,-1.33881 z m 9.5081,-5.41119 c 0,-2.475 0.19502,-3.4875 0.43337,-2.25 0.23836,1.2375 0.23836,3.2625 0,4.5 -0.23835,1.2375 -0.43337,0.225 -0.43337,-2.25 z m 101.41283,-0.67296 c -2.09814,-1.34101 -3.63759,-2.97568 -3.421,-3.63262 0.21659,-0.65693 11.83318,-7.8591 25.81465,-16.00482 13.98147,-8.14572 26.43342,-15.76167 27.671,-16.92432 1.23759,-1.16265 2.25016,-1.66391 2.25016,-1.11391 0,2.15034 -5.6966,6.05676 -26.67599,18.29295 -17.05331,9.94632 -22.23383,13.44933 -23.76366,16.06877 -1.07597,1.84231 -1.46821,3.048 -0.87164,2.6793 0.59657,-0.3687 1.64979,0.0106 2.34048,0.84279 2.05292,2.47361 0.72231,2.39079 -3.344,-0.20814 z M 113.8067,205.89715 c 1.38385,-1.38385 1.22374,-5.66595 -0.19683,-5.26439 -0.3535,0.0999 -7.16772,-3.67561 -15.142721,-8.39008 -7.975,-4.71447 -17.875,-10.51563 -22,-12.89146 -8.451782,-4.86788 -14.000756,-9.8711 -13.998446,-12.62166 0.001,-1.1991 0.61672,-0.64325 1.75,1.57988 1.470228,2.8841 5.775178,5.76514 27.054184,18.10573 13.918153,8.07173 25.843153,15.22273 26.500003,15.89111 0.92884,0.94516 0.66958,1.64397 -1.16652,3.14426 -2.76624,2.26032 -4.96396,2.6109 -2.79967,0.44661 z m 100.20571,-22.76759 c 0.38805,-5.6375 0.91035,-10.47373 1.16066,-10.74719 0.25032,-0.27345 0.30638,4.33543 0.1246,10.24197 -0.18179,5.90653 -0.70408,10.74276 -1.16066,10.74718 -0.45658,0.004 -0.51265,-4.60446 -0.1246,-10.24196 z m 3.10836,2.84419 c 1.11009,-3.1115 7.34638,-13.08219 7.34638,-11.74552 0,1.64183 -3.42909,8.0372 -5.97915,11.15133 -1.5137,1.84853 -1.86998,2.00337 -1.36723,0.59419 z m 0.68861,-12.90109 c 0.2737,-2.48895 0.99732,-5.45904 1.60805,-6.6002 0.85541,-1.59835 0.75982,-2.75283 -0.41626,-5.02712 -1.07942,-2.08736 -1.20204,-3.15292 -0.41855,-3.63714 1.64788,-1.01845 2.5771,1.13738 3.31981,7.70208 0.69297,6.12505 -0.61318,10.79035 -3.26298,11.65467 -1.01813,0.3321 -1.21167,-0.62205 -0.83007,-4.09229 z m -22.73524,0.72511 c -1.12472,-2.93096 -0.6206,-3.54746 2.64301,-3.23218 2.84616,0.27496 3.46726,-0.12094 4.99845,-3.18603 0.997,-1.99578 1.74911,-2.74913 1.75,-1.75288 0.002,1.75921 -6.56182,9.75288 -8.00782,9.75288 -0.42716,0 -1.0498,-0.7118 -1.38364,-1.58179 z m 29.62501,-10.41821 c 0,-1.925 0.2058,-2.7125 0.45733,-1.75 0.25152,0.9625 0.25152,2.5375 0,3.5 -0.25153,0.9625 -0.45733,0.175 -0.45733,-1.75 z m -9.92213,-8.5 c 0.006,-3.3 0.1923,-4.52944 0.41486,-2.73209 0.22256,1.79735 0.21797,4.49735 -0.0102,6 -0.22818,1.50265 -0.41027,0.0321 -0.40466,-3.26791 z m 124.1484,-20.75 c -16.70628,-28.93586 -16.97823,-29.42431 -15.72877,-28.25 1.15839,1.08872 23.71967,39.5398 27.18055,46.32369 4.86451,9.53523 0.62843,2.84966 -11.45178,-18.07369 z m -122.90625,13.42856 -5.94798,-6.67856 5.27315,5 c 4.33782,4.11311 8.1245,8.73331 6.90799,8.42856 -0.15685,-0.0393 -2.96177,-3.0768 -6.23316,-6.75 z m -11.55202,-1.52357 c 0,-1.98832 0.5022,-2.65499 2,-2.65499 1.1,0 2,0.38026 2,0.84501 0,0.46476 -0.9,1.6595 -2,2.65499 -1.95228,1.76679 -2,1.74663 -2,-0.84501 z m 19.94617,-8.40499 -3.44617,-3.75 3.75,3.44617 c 3.49042,3.20761 4.20979,4.05383 3.44617,4.05383 -0.16711,0 -1.85461,-1.6875 -3.75,-3.75 z m -30.50908,-9.5 -2.93709,-3.25 3.25,2.93709 c 3.02946,2.73778 3.70965,3.56291 2.93709,3.56291 -0.1721,0 -1.6346,-1.4625 -3.25,-3.25 z m 11.16489,-7 c -4.18362,-3.9875 -7.59186,-7.925 -7.57387,-8.75 0.0226,-1.03445 0.35777,-0.87927 1.08006,0.5 0.57604,1.1 4.27486,5.02839 8.21959,8.72975 3.94473,3.70137 6.88167,6.73887 6.52652,6.75 -0.35515,0.0111 -4.06868,-3.24225 -8.2523,-7.22975 z m 47.61782,-26.430448 0.2198,-30.81955 0.5302,28.5 c 0.51317,27.584848 1.16665,33.793238 3.24549,30.833848 0.74533,-1.06103 0.85425,-1.02705 0.53251,0.16615 -0.22245,0.825 -1.38171,1.6438 -2.57613,1.81955 l -2.17167,0.31955 z M 203.7885,109.45816 c 0.1273,-3.86315 0.60979,-5.53773 1.67865,-5.82613 1.21415,-0.3276 1.24145,-0.22348 0.14324,0.5464 -0.96346,0.67541 -1.03121,1.15234 -0.23369,1.64523 0.61769,0.38175 0.81892,1.18622 0.44718,1.78771 -0.37173,0.60148 -1.02197,2.48289 -1.44495,4.1809 -0.61098,2.45264 -0.73235,1.97283 -0.59043,-2.33411 z M 189.96715,90.49298 c 3.02054,-3.319156 9.31705,-7.132203 11.71016,-7.091456 0.70941,0.01208 -0.53958,0.852881 -2.77554,1.868449 -2.23595,1.015568 -5.83595,3.347936 -8,5.183039 l -3.93462,3.336551 z m 33.93709,-0.363418 -2.93709,-3.25 3.25,2.937091 c 3.02946,2.737781 3.70965,3.562909 2.93709,3.562909 -0.1721,0 -1.6346,-1.4625 -3.25,-3.25 z m -19.18709,-7.439326 c 0.9625,-0.251527 2.5375,-0.251527 3.5,0 0.9625,0.251528 0.175,0.457323 -1.75,0.457323 -1.925,0 -2.7125,-0.205795 -1.75,-0.457323 z m -4.134,-11.092059 c -0.13659,-5.041384 1.38474,-6.092062 5.55132,-3.833913 l 2.83268,1.535223 -2.62756,0.04004 c -2.84239,0.04331 -4.37589,1.395489 -5.14883,4.540038 -0.27038,1.1 -0.54381,0.07338 -0.60761,-2.281388 z m 15.384,0.481677 c -6.28523,-1.991278 -6.91341,-2.48686 -2.5,-1.972281 2.475,0.288571 4.92,0.910321 5.43333,1.381665 1.4964,1.373996 0.29979,1.614928 -2.93333,0.590616 z"
     style="fill:#686868"
     sodipodi:nodetypes="ssscscccscsssscssssssssccccsssssccsscssssssssssssssssssscssccccssccsssssscscccsscssssssssscssssssscscccssssssssssssssssssssscsscssssssssscscssssssssssssssscsssssscsscssssscscssssssscsssscsssscsscsccssssccssssssssssscsscssssssssscsssssss" />
  <path
     inkscape:connector-curvature="0"
     id="path6640"
     d="m 170.61416,342.62956 c -1.99867,-1.68599 -2.08502,-2.81238 -2.36078,-30.79654 -0.25381,-25.75646 -0.48588,-29.35097 -2.04888,-31.73413 -2.35859,-3.59623 -5.86733,-4.32331 -11.14208,-2.30886 -2.37489,0.90698 -13.78665,7.03566 -25.35945,13.61929 -22.37016,12.72612 -25.28029,13.70239 -28.9745,9.72024 -2.380599,-2.56615 -29.414312,-48.76181 -32.806613,-56.06049 -1.229708,-2.64577 -2.019427,-5.63802 -1.754931,-6.64946 0.674539,-2.57944 4.929792,-6.30727 10.800223,-9.46157 5.225399,-2.80771 4.445332,-2.10526 -3.244353,2.92152 -4.906063,3.20712 -7.158387,5.93059 -5.924799,7.16418 0.41806,0.41806 1.752144,0.13812 2.96463,-0.62209 1.212487,-0.76021 11.429522,-6.74763 22.704522,-13.30539 20.472701,-11.90732 25.570511,-15.52518 24.863721,-17.64555 -0.39703,-1.19109 -3.27105,0.0643 -12.11372,5.29116 -2.6125,1.54426 -4.75,2.59126 -4.75,2.32668 0,-0.26458 3.2625,-2.39587 7.25,-4.7362 9.44055,-5.54081 10.75,-6.75168 10.75,-9.94069 0,-4.02171 -3.48044,-6.65082 -26.500001,-20.01798 -11.55,-6.70693 -22.2375,-13.36305 -23.75,-14.79136 -3.233711,-3.05373 -3.389732,-5.21677 -0.789453,-10.94479 2.647673,-5.83242 29.021711,-51.43034 30.816213,-53.27797 3.382711,-2.387364 1.829891,-6.167788 4.076051,-3.771979 2.48524,0.06627 8.37277,3.019319 5.68497,2.009851 -0.50304,-1.31092 -0.29909,-1.3156 1.69519,-0.039 9.72668,6.226628 43.75673,24.801128 45.43767,24.801128 1.39304,0 2.06007,0.59306 1.96825,1.75 -0.10714,1.34993 0.63634,1.75 3.25212,1.75 3.85075,0 6.65602,-2.90365 4.25351,-4.40267 -1.10921,-0.69209 -1.01837,-1.36015 0.5,-3.67711 1.66271,-2.53721 1.91413,-5.84891 2.42001,-31.875794 0.31049,-15.974433 0.64799,-28.20444 0.75,-27.177793 0.1476,1.485513 -0.50478,-2.639106 1.28583,-3.273162 1.2375,-0.4382 19.7137,-0.328772 38.87249,-0.537443 32.20229,-0.350737 34.14725,0.897983 33.55727,-0.664794 -0.57007,-1.510042 -0.44562,0.799381 1.16584,2.39437 1.6438,1.627003 1.83586,4.501156 2.16226,32.358219 0.33258,28.385047 0.49358,30.707977 2.25,32.464397 1.04048,1.04048 2.79178,1.89178 3.89178,1.89178 1.11111,0 1.97348,0.35117 2.76642,0.0949 4.98176,-1.6101 4.25624,-1.36707 9.86928,-4.31699 2.74562,-1.44295 12.58109,-7.26283 22.48109,-12.93306 9.9,-5.67023 20.24416,-11.017132 21.89416,-11.413632 1.65,-0.3965 2.77498,3.824512 3.12446,3.291212 0.34947,-0.533288 1.75749,0.99849 3.12893,3.40398 1.37144,2.40548 8.66298,15.05409 16.20341,28.10803 15.77006,27.30097 16.7553,29.65728 13.95803,33.38202 -1.05918,1.41036 -12.49068,8.75176 -25.40333,16.31421 -23.54721,13.7907 -27.4075,16.88092 -26.3135,21.06437 0.80984,3.09683 4.04679,5.35734 25.79105,18.01113 11.55,6.72137 22.23643,13.09951 23.74761,14.17365 3.32099,2.36053 4.32301,5.74456 2.90523,9.8116 -1.8218,5.22601 -31.18938,55.39481 -33.8317,57.79489 -1.73822,1.57886 -3.18295,2.08659 -4.6691,1.64089 -1.18362,-0.35497 -10.47704,-5.39259 -20.65204,-11.1947 -29.66228,-16.9144 -34.47509,-18.67647 -38.59501,-14.1305 -1.74847,1.92928 -1.95329,4.45578 -2.49285,30.75 -0.32333,15.7564 -0.94036,29.45215 -1.37118,30.435 -1.92485,4.39116 -4.61416,4.71301 -39.38052,4.71301 -29.91338,0 -33.12942,-0.16074 -35.01343,-1.75 z m 39.28156,-10.82143 c 1.84943,-1.84943 2.00413,-3.59587 0.4557,-5.1443 -0.82097,-0.82097 -0.68888,-1.72514 0.5,-3.42251 1.13316,-1.61781 1.64815,-4.70435 1.72426,-10.33427 0.11362,-8.40313 1.49006,-22.03581 1.74445,-17.27749 0.14014,2.6213 0.38569,2.75 5.24702,2.75 4.46667,0 5.52222,-0.42222 8.5,-3.4 4.00112,-4.00112 4.52917,-6.69106 1.15,-5.85823 l -2.25,0.55454 2.12504,-2.39816 c 3.38812,-3.82357 4.37501,-6.43678 4.37417,-11.58241 -0.001,-9.01477 -5.79638,-18.07477 -17.24921,-26.96814 -2.92204,-2.26903 -3.30729,-3.85401 -1.83528,-7.55055 0.5031,-1.26338 1.91228,-5.5681 3.13151,-9.56605 l 2.21679,-7.26901 -2.13151,-5.56998 c -1.53885,-4.02126 -2.11389,-7.7001 -2.06812,-13.23099 0.0477,-5.76235 0.29375,-7.08655 0.99291,-5.34305 l 0.92954,2.31796 4.01531,-2.25673 c 3.84176,-2.15919 11.94561,-12.26577 10.77434,-13.43704 -0.30652,-0.30652 -1.54188,0.82539 -2.74524,2.51535 -1.20336,1.68997 -3.61495,3.76266 -5.35909,4.60599 -2.94301,1.423 -3.02727,1.41684 -1.17116,-0.0857 1.1,-0.89045 1.8875,-2.03723 1.75,-2.54841 -0.1375,-0.51118 0.25905,-0.81692 0.88122,-0.67942 1.82395,0.40309 9.59915,-11.94341 12.0487,-19.13255 5.37226,-15.76694 2.03399,-26.96433 -11.99901,-40.24774 -8.48365,-8.03048 -8.50995,-8.07087 -7.34752,-11.28551 0.64164,-1.77441 1.16661,-4.26185 1.16661,-5.52764 0,-1.8776 0.26221,-2.08383 1.4238,-1.1198 1.79907,1.4931 8.94393,-1.88684 10.62378,-5.02567 1.56508,-2.92437 0.65832,-3.32749 -3.10606,-1.38085 -3.15011,1.62899 -3.12376,1.56301 0.90707,-2.27143 3.31823,-3.15655 4.15141,-4.648248 4.15141,-7.432528 0,-4.388063 -4.66732,-11.631833 -9.18221,-14.250967 -4.39589,-2.550105 -4.94255,-3.55911 -3.24291,-5.98568 2.04083,-2.913694 1.78375,-7.955105 -0.51159,-10.03236 -1.0652,-0.963986 -5.2277,-2.631344 -9.25,-3.705241 -5.93676,-1.585027 -8.01605,-1.748222 -11.04697,-0.867033 -4.65728,1.354026 -5.92713,3.657594 -5.62816,10.209743 0.20453,4.482317 -0.0781,5.349327 -2.1927,6.725463 -9.77917,6.364194 -15.33835,15.625045 -15.29125,25.473173 0.0422,8.82353 3.03555,14.35589 13.58426,25.10662 6.92163,7.05418 8.69549,9.4324 8.20463,11 -0.34443,1.1 -0.84886,6.05 -1.12095,11 -0.49052,8.92377 -0.52786,9.03142 -4.40843,12.70987 -4.59929,4.35974 -4.70209,5.36907 -1.91372,18.79013 2.92006,14.05492 2.77037,15.3493 -2.44596,21.15112 -2.44528,2.71974 -5.82028,7.69523 -7.5,11.05665 -2.57416,5.15135 -3.05404,7.26676 -3.05404,13.46285 0,9.92009 2.44182,14.96248 11.4406,23.62497 l 7.0594,6.7956 0.10328,5.7044 c 0.53152,29.35705 1.83233,61.03427 2.56466,62.45441 0.49633,0.9625 1.77076,1.75 2.83206,1.75 1.0613,0 2.4113,0.9 3,2 1.28985,2.4101 2.34493,2.51221 4.42857,0.42857 z M 82.467149,226.0261 c 0,-0.37798 5.677762,-3.78118 17.25,-10.33953 0.412501,-0.23377 0.750001,-0.21287 0.750001,0.0465 0,0.37798 -5.677763,3.78118 -17.250001,10.33953 -0.4125,0.23377 -0.75,0.21287 -0.75,-0.0465 z M 269.46715,118.018 c 0,-1.20513 37.34764,-21.704498 38.82912,-21.312528 1.46782,0.38836 1.45422,0.45618 -0.1119,0.55809 -1.46211,0.0951 -9.42414,4.458008 -37.96722,20.804508 -0.4125,0.23624 -0.75,0.2137 -0.75,-0.0501 z M 170.90828,56.879874 c 1.63783,-1.265888 7.22376,-1.500312 35.75,-1.500312 24.74565,0 33.80887,0.307235 33.80887,1.146092 0,0.848772 -8.62572,1.012877 -33.25,0.632584 -18.2875,-0.28243 -34.375,-0.123031 -35.75,0.354219 -2.37236,0.823426 -2.4009,0.79113 -0.55887,-0.632583 z"
     style="fill:#39c217;fill-opacity:1"
     sodipodi:nodetypes="sssssssssssssssssssssccccssssssssssssssssssssssssssssssssssscssssssscscssscssscssssssssssssssssssssssssssssssssscssssccscscscscsccssssss"
     inkscape:export-xdpi="14.948095"
     inkscape:export-ydpi="14.948095"
     inkscape:export-filename="/home/raven/work/projects/enumbers/res/drawable-mdpi/allergic_green.png" />
  <path
     style="fill:#262626"
     d="m 170.86681,345.98909 c -9.34992,-11.57345 -3.17843,-30.75373 -5.55959,-45.45408 2.50778,-11.48168 -3.10512,-28.4777 -16.45521,-16.74677 -14.64634,7.05356 -27.74175,17.829 -43.46198,22.33793 -13.890374,-5.66851 -17.749393,-24.47103 -26.645969,-35.88718 -4.816273,-10.35573 -15.39337,-22.13415 -14.814397,-32.33014 9.56109,-11.24018 -2.076156,6.52975 6.255233,11.51041 10.385787,17.75899 19.704629,36.47033 31.931683,52.95792 13.93565,0.9967 25.51392,-11.73341 38.11784,-16.86126 10.68941,-9.97691 32.0476,-12.70569 27.7461,8.02382 0.73545,15.81395 -0.52717,31.7984 1.46036,47.50186 12.97181,6.88875 30.47068,1.59974 45.14477,3.32639 11.5471,-1.0967 34.83668,4.87595 31.14836,-14.37886 1.08822,-16.50385 0.018,-33.17395 2.08686,-49.5866 11.5767,-10.72517 27.55113,8.32815 39.64628,12.20952 10.47746,6.23578 26.17093,18.46577 31.46588,0.24573 9.54186,-15.9713 19.36984,-31.83565 27.68696,-48.48681 0.33606,-15.63457 -22.23012,-18.21273 -32.29491,-27.28005 -10.75995,-4.58221 -30.6607,-17.33781 -10.8729,-25.50772 13.95317,-9.26719 29.61475,-16.1761 42.55715,-26.80741 2.71652,-11.73059 -9.36217,-21.66462 -13.53536,-32.21715 -7.37616,-12.34803 -14.59128,-26.73466 -23.33282,-37.120027 11.81279,4.264887 14.54466,21.746097 22.49076,31.105377 6.0898,12.12546 15.70583,23.2088 18.19664,36.70206 -8.04956,11.79355 -23.59437,16.48175 -35.161,24.63625 -9.52299,3.90581 -25.0118,14.83864 -9.75977,21.18617 6.7398,3.23377 14.37727,8.34839 21.55937,12.37011 6.0256,3.30746 12.94007,7.37452 19.08696,11.14703 9.90201,7.0802 -1.27208,23.13629 -6.47136,31.71757 -8.13239,13.62785 -15.8626,27.54923 -24.92902,40.58336 -13.97704,3.77825 -26.29919,-10.76345 -38.92915,-15.58819 -9.3334,-6.67697 -29.51025,-16.93823 -26.35614,3.59056 -0.62182,16.22234 -0.20803,32.51066 -1.76452,48.68066 -11.66611,10.16387 -30.00264,3.35857 -44.44108,5.5905 -10.57562,-0.25938 -21.37063,0.86338 -31.79603,-1.17098 z m 28.76828,-18.35953 c -2.05626,-22.6405 -2.08073,-45.43694 -2.66794,-68.15881 -9.305,-8.66793 -20.61516,-18.33731 -18.47435,-32.56672 -1.56304,-15.47512 19.77282,-23.18534 13.92158,-38.8183 -4.75255,-11.54973 -2.26569,-21.99768 5.02487,-30.97282 4.59705,-14.49471 -2.26058,-25.36087 -13.30047,-34.45091 -12.73415,-12.93249 -6.76188,-35.100176 8.27383,-43.362233 2.66315,-7.844167 3.22248,-22.349606 16.81297,-16.596647 9.9526,0.08176 16.6015,8.422587 11.15208,17.212589 8.3387,4.053203 18.50391,18.240485 8.96938,24.297031 7.51371,-15.472544 -17.90668,-19.065758 -10.47526,-33.234322 -7.19679,-9.986265 -26.24699,-8.315746 -21.5628,7.263011 -11.23829,8.083045 -22.78945,22.667061 -15.23932,37.111771 8.24579,13.67821 25.47418,22.2606 18.34689,40.78908 -1.35995,10.37973 -12.21384,16.82443 -6.12925,28.47778 8.79515,17.21024 -12.1564,25.95279 -13.0681,41.71338 -2.50868,14.11962 8.70316,24.08017 18.11281,32.54612 0.92625,21.74815 0.78882,43.57666 2.81421,65.25039 3.21256,3.54491 2.66931,7.87559 -2.51113,3.49961 z m 9.87145,-11.25 c 0.68758,-6.42734 -0.38367,-25.74909 3.99293,-25.05497 -1.42892,9.91753 1.29627,24.80292 -3.73669,31.87726 -0.32028,-2.26158 -0.21232,-4.548 -0.25624,-6.82229 z m 19.46207,-30.75 c 7.19506,-14.52664 -5.80656,-27.38701 -15.51449,-36.57742 -4.85809,-10.63618 6.97775,-23.56652 0.48708,-35.45132 -1.94149,-5.5724 0.23745,-29.9489 1.6979,-12.9801 -2.49416,9.13489 3.84481,17.73198 3.35944,26.11772 -3.93644,10.5014 -9.12209,22.3471 4.36148,28.19183 9.0066,6.62184 14.36278,28.5748 5.60859,30.69929 z m -7.9367,-3.14522 c 1.91555,-5.09082 3.75108,3.2038 0,0 z m -7.56476,-9.5696 c 6.80837,-6.96676 2.6922,2.80648 0,0 z M 116.29382,203.87956 C 113.68826,190.13946 93.290381,186.7803 83.199872,178.29819 68.38654,173.223 58.018449,158.25257 71.487158,145.35668 c 9.681256,-16.01465 18.021879,-32.98475 29.251162,-47.966062 10.36111,-4.378256 18.03421,5.357432 25.72883,8.488942 4.94809,3.22059 11.14693,5.88754 15.66094,9.28019 11.93217,7.17994 25.92922,13.81559 8.84597,6.94394 -16.23058,-7.55348 -30.95075,-19.03959 -47.83794,-24.622556 -10.094787,10.135296 -15.378644,24.522106 -23.269965,36.493046 -4.481383,10.87829 -22.641007,27.81297 -4.992825,35.51808 14.254782,9.84644 31.049,16.27803 43.75703,28.12956 4.13422,2.7632 -3.78255,9.41347 -2.33654,6.25774 z m 111.63202,-17.03092 c 9.37533,-13.79223 14.38694,-34.52334 1.28637,-47.79196 -7.83753,-8.28803 -17.54107,-14.24475 -12.16736,-26.22167 -1.29237,-5.99078 -11.92948,-9.78779 0.0713,-5.04618 7.07748,5.49177 -4.8131,15.41156 4.17898,19.34008 10.9974,9.42138 22.51752,22.89051 17.95699,38.47252 -2.45741,10.73111 -8.15648,20.48817 -15.86972,28.27813 1.51446,-2.34364 3.02893,-4.68728 4.54339,-7.03092 z m -12.45869,-37.7545 c -7.64632,-9.33942 8.96199,5.37127 0,0 z m 33,-25.71458 c -4.25626,-12.76957 -0.96617,-27.289516 -2.18928,-40.70233 1.37112,-8.984343 -1.98342,-23.461916 -4.13696,-27.210837 7.69904,1.280654 5.70257,8.780093 5.99968,14.372708 0.52011,16.796477 -0.13067,33.688319 1.62153,50.400069 2.58177,2.23788 4.47428,8.41899 -1.29497,3.14039 z M 165.23739,91.124287 c 1.66884,-10.875468 -3.46673,-27.391608 4.77065,-34.336766 -3.4226,19.954906 -0.31517,44.341019 -3.25289,64.420889 -3.15111,4.82208 -0.96325,-18.62666 -1.56049,-23.492023 0.008,-2.197401 0.0231,-4.394773 0.0427,-6.5921 z m 33.76168,13.306923 c 1.46313,-5.486232 9.56463,-1.68321 0,0 z"
     id="path6638"
     inkscape:connector-curvature="0"
     sodipodi:nodetypes="cccccccccccccccccccccccccccccccccccccccccccccccccccccccccccccccccccccccccccccccccccccccccccccccccccccccccc" />
  <path
     inkscape:connector-curvature="0"
     id="path6636"
     d="m 169.29497,350.26694 c -4.4467,-1.66768 -4.84348,-4.77131 -4.63902,-36.2866 l 0.1888,-29.10078 0.57931,28 c 0.40485,19.56732 0.95524,28.66701 1.82752,30.21475 2.26641,4.0214 6.70035,4.46403 41.21557,4.11443 29.38476,-0.29763 32.75555,-0.50267 35.16603,-2.13917 1.46632,-0.9955 3.02815,-2.5705 3.47074,-3.5 0.44259,-0.92951 1.04287,-14.39086 1.33397,-29.91413 0.51376,-27.39769 0.5937,-28.2885 2.73006,-30.42303 2.02225,-2.0205 2.53237,-2.09956 6.28747,-0.97451 2.24767,0.67342 11.83851,5.63983 21.31297,11.03648 28.23887,16.08482 30.55589,16.97483 35.38534,13.59216 1.17237,-0.82117 8.86137,-13.08367 17.08667,-27.25 17.51591,-30.16748 17.95272,-30.98816 18.23344,-34.25698 0.42997,-5.00682 -0.0747,-6.32872 -3.75669,-9.8395 l -3.75,-3.57566 4,2.33405 c 8.5904,5.01261 10.33369,9.56645 6.52227,17.03746 -5.00379,9.80824 -34.37345,59.68088 -35.80096,60.79365 -4.01732,3.13155 -8.0238,1.62469 -31.69998,-11.9225 -12.66173,-7.24487 -23.79997,-13.1235 -24.75164,-13.06363 -0.95167,0.0599 -2.0337,-0.38203 -2.40451,-0.98201 -0.43208,-0.69912 -0.2041,-0.80034 0.63482,-0.28186 0.89222,0.55142 1.06841,0.41971 0.55336,-0.41367 -0.41561,-0.67247 -1.40852,-0.97215 -2.20645,-0.66596 -0.88022,0.33777 -1.18714,0.13014 -0.78042,-0.52796 0.41242,-0.6673 -0.0486,-0.94666 -1.19806,-0.72601 -1.76365,0.33856 -1.89647,2.09645 -2.36843,31.34614 -0.39077,24.21817 -0.80541,31.44663 -1.89807,33.08939 -3.24179,4.87385 -3.34235,4.88601 -42.10193,5.09284 -22.44427,0.11977 -37.52903,-0.19115 -39.17218,-0.80739 z M 202.0097,325.4484 c -0.31652,-0.51213 -1.04848,-15.69963 -1.62659,-33.75 l -1.0511,-32.81884 -6.88129,-6.5 c -8.59908,-8.12261 -11.43564,-13.84717 -11.39667,-23 0.0349,-8.20485 3.32027,-15.76987 9.69867,-22.33276 5.28439,-5.43724 6.08806,-8.09712 4.7338,-15.66724 -3.6456,-20.37845 -3.673,-21.04102 -0.96652,-23.36903 4.99673,-4.29801 5.94715,-6.63286 5.94715,-14.61008 0,-4.14375 0.39582,-8.91424 0.8796,-10.60108 1.13775,-3.96711 0.30134,-5.31717 -8.48286,-13.69221 -11.77227,-11.22392 -15.17965,-20.08277 -11.97047,-31.121978 1.67585,-5.76471 6.92973,-12.20752 13.98483,-17.149527 2.67639,-1.874776 2.89631,-2.49188 2.72763,-7.653841 -0.20966,-6.416168 1.34935,-8.802252 5.7512,-8.802252 4.28821,0 12.60509,2.784527 14.46921,4.84435 1.63147,1.802752 1.52455,1.838574 -3.23968,1.085451 -2.70976,-0.428355 -6.36079,-1.520355 -8.1134,-2.426668 -4.92438,-2.546496 -6.34847,-1.418496 -5.77281,4.572548 0.26646,2.773125 0.90519,5.462757 1.41939,5.97696 0.5142,0.514203 3.84022,1.2102 7.39114,1.54666 9.90002,0.938056 19.23605,8.009697 20.55485,15.569419 l 0.58114,3.33128 -1.65631,-3 C 222.82326,84.70899 207.45534,79.557069 196.87247,85.112319 c -4.74804,2.492383 -10.05791,8.191534 -12.03042,12.912393 -1.638,3.920308 -1.80262,13.099648 -0.30554,17.037278 1.98259,5.21462 9.00085,13.12016 18.90938,21.30002 5.41832,4.47303 10.10057,8.78185 10.40499,9.57516 0.75394,1.96473 -0.0985,1.81193 -3.11086,-0.55761 -1.39842,-1.1 -3.3819,-2 -4.40773,-2 -1.69878,0 -1.86528,0.91426 -1.86669,10.25 -0.002,13.20014 -1.72157,17.42436 -6.88665,16.91752 -3.14128,-0.30825 -3.33585,-0.16249 -2.66982,2 3.56195,11.56515 5.50885,25.77549 6.31067,46.06126 0.82422,20.85255 0.95372,21.82976 3.21127,24.23281 1.29383,1.37722 3.22412,2.7807 4.28954,3.11886 1.06542,0.33815 5.4953,4.11608 9.84419,8.3954 8.32402,8.19086 11.40187,13.42535 12.38705,21.06663 0.52877,4.10122 0.40359,3.93849 -1.56598,-2.03586 -2.02971,-6.15676 -2.93576,-7.27134 -17.47743,-21.5 -17.36208,-16.98836 -18.10902,-18.37466 -15.07919,-27.98637 1.91096,-6.06227 2.1656,-15.07608 0.45576,-16.13282 -1.52239,-0.94089 -7.067,5.43006 -10.00165,11.49223 -1.22247,2.52528 -2.40685,7.13773 -2.63196,10.2499 -0.73539,10.16664 3.20951,17.6725 13.09022,24.90642 6.30221,4.61401 8.20895,7.0806 6.66616,8.62339 -0.6166,0.6166 -0.65358,11.78966 -0.10229,30.9032 0.47491,16.46559 0.65742,30.49993 0.40558,31.18743 -0.54009,1.47436 -1.88884,1.63356 -2.70137,0.31884 z M 99.640519,309.0641 c -2.677599,-2.85017 -36.035313,-60.31477 -36.821916,-63.4323 -0.311931,-1.23627 -0.230502,-3.03627 0.180955,-4 0.609872,-1.42847 0.876648,-1.19792 1.443797,1.24776 0.943716,4.06953 2.684101,7.32684 18.43338,34.5 7.491195,12.925 15.027449,24.78819 16.747234,26.36264 4.806011,4.39989 8.039441,3.43846 29.094231,-8.65088 25.16255,-14.44795 28.43306,-16.01666 31.61979,-15.16655 1.44604,0.38576 2.06386,0.90933 1.37293,1.16349 -0.69093,0.25417 -1.00506,0.86853 -0.69806,1.36526 0.30699,0.49672 -0.13641,0.6366 -0.98534,0.31083 -0.8693,-0.33358 -1.78439,0.0354 -2.09497,0.84479 -0.30331,0.7904 -1.0946,1.44144 -1.75843,1.44676 -0.66383,0.005 -11.56657,5.93031 -24.2283,13.16666 -25.06735,14.32632 -28.08129,15.33779 -32.305301,10.84154 z M 212.82591,280.87956 c 0.34057,-2.2 0.62418,-4.7875 0.63023,-5.75 0.006,-0.9625 0.68601,-1.75 1.51101,-1.75 0.825,0 1.5,-0.45 1.5,-1 0,-0.55 0.66344,-1 1.47432,-1 1.70766,0 4.52568,4.95047 4.52568,7.95034 0,3.36709 -1.57963,2.32347 -2.57363,-1.70034 -1.30052,-5.2646 -3.64203,-4.89356 -4.7331,0.75 -1.13527,5.87216 -3.19861,8.08177 -2.33451,2.5 z m 0.26624,-59.625 c -0.34375,-1.71875 -0.55533,-6.78125 -0.47017,-11.25 l 0.15483,-8.125 0.69099,8 c 0.38004,4.4 1.21037,9.26679 1.84517,10.8151 1.45428,3.54705 1.44602,3.6849 -0.22082,3.6849 -0.75625,0 -1.65625,-1.40625 -2,-3.125 z m 86.00717,-15.66115 c -0.31246,-0.50556 0.0221,-1.7264 0.74353,-2.71298 1.23023,-1.68243 1.30192,-1.66181 1.15501,0.33231 -0.18558,2.51902 -1.10247,3.66875 -1.89854,2.38067 z m -1.63217,-4.06548 c 0,-3.22532 3.10543,-5.45998 26.82087,-19.30026 11.92352,-6.95854 22.53582,-13.79603 23.58289,-15.19443 2.44726,-3.2684 2.29597,-7.35771 -0.47382,-12.80703 -3.65368,-7.18829 -31.08077,-54.21243 -32.71868,-56.096648 -1.69355,-1.94823 -1.01531,-2.25068 1.74014,-0.77601 1.00096,0.5357 9.97137,15.083338 19.93426,32.328098 20.03519,34.67891 20.6651,36.3738 15.22088,40.95481 -1.5914,1.33907 -13.26101,8.44622 -25.93246,15.79366 -12.67146,7.34743 -22.77487,13.78635 -22.45204,14.30871 0.32935,0.5329 0.0526,0.61949 -0.63054,0.19728 -0.68441,-0.42299 -2.06568,0.0151 -3.15451,1.00048 -1.85923,1.68257 -1.93699,1.66616 -1.93699,-0.40866 z M 113.85026,200.5687 c 0.26784,-0.43338 -10.39629,-7.09402 -23.698067,-14.80144 -21.345762,-12.36832 -24.404437,-14.45529 -26.053833,-17.77684 -1.392851,-2.80493 -1.619797,-4.31697 -0.891114,-5.93711 0.92247,-2.05101 1.018333,-1.99037 1.69775,1.074 0.955418,4.30921 5.671296,7.95657 23.562153,18.22345 18.097771,10.38563 28.000001,16.71656 28.000001,17.90164 0,0.50225 -0.69837,1.18117 -1.55194,1.50872 -0.85356,0.32754 -1.33279,0.24095 -1.06495,-0.19242 z m 101.07005,-15.66058 c 0.83465,-6.68024 0.88736,-34.16856 0.0681,-35.4942 -0.30521,-0.49383 0.77077,-0.23653 2.39106,0.57177 3.4077,1.69999 6.86946,8.21149 7.12067,13.39387 0.36568,7.54373 -0.15882,9.82664 -3.55244,15.46232 -1.93571,3.21456 -3.78556,6.90484 -4.11078,8.20062 -0.32522,1.29578 -1.05124,2.64021 -1.61339,2.98763 -0.68156,0.42123 -0.78257,-1.28522 -0.3032,-5.12201 z m 6.34743,-10.84411 c 0.88943,-1.82446 1.09008,-4.52862 0.63469,-8.55373 -0.74271,-6.5647 -1.67193,-8.72053 -3.31981,-7.70208 -0.78723,0.48653 -0.68769,1.49791 0.34369,3.49239 1.30331,2.52031 1.25359,3.32927 -0.486,7.90749 -2.79145,7.34648 -0.39399,11.46394 2.82743,4.85593 z m 15.19941,-12.55872 c 0,-11.22788 -4.72053,-18.23888 -22.74179,-33.77648 -7.28299,-6.27925 -13.94749,-12.7815 -14.81002,-14.44943 -1.74878,-3.38177 -1.59835,-8.39982 0.25181,-8.39982 0.66,0 1.7625,-0.5625 2.45,-1.25 1.81034,-1.81034 5.16782,-1.5342 7.47444,0.61474 1.10085,1.0256 2.97539,2.38591 4.16564,3.02291 1.19025,0.637 2.687,2.13527 3.32613,3.32949 0.90006,1.68178 0.20915,1.3948 -3.06457,-1.27292 -9.50422,-7.74488 -10.48617,-7.62827 -9.84978,1.16968 0.47281,6.53659 2.63606,9.70561 8.79814,12.8887 4.82955,2.49475 19.22321,17.52262 22.02687,22.9974 1.61029,3.14445 2.44388,6.83455 2.76728,12.25 0.25455,4.2625 0.18,7.75 -0.16566,7.75 -0.34567,0 -0.62849,-2.19342 -0.62849,-4.87427 z m 13.30902,-40.37573 c -0.44496,-0.6875 -1.03402,-14.79454 -1.30902,-31.348965 -0.38983,-23.466779 -0.80241,-30.462766 -1.87244,-31.75 -2.15747,-2.595397 1.09112,-2.171498 3.46745,0.452459 1.77257,1.957274 1.92521,4.251181 2.19592,33 0.27739,29.458546 -0.0526,33.400026 -2.48191,29.646506 z M 164.90285,90.879562 c 5.7e-4,-14.3 0.14102,-20.010938 0.31211,-12.690973 0.17108,7.319964 0.17062,19.019963 -0.001,26.000001 -0.1717,6.98003 -0.31168,0.99097 -0.31111,-13.309028 z"
     style="fill:#1d1d1d" />
</svg>
