<?xml version="1.0" encoding="UTF-8" standalone="no"?>
<!-- Created with Inkscape (http://www.inkscape.org/) -->

<svg
   xmlns:dc="http://purl.org/dc/elements/1.1/"
   xmlns:cc="http://creativecommons.org/ns#"
   xmlns:rdf="http://www.w3.org/1999/02/22-rdf-syntax-ns#"
   xmlns:svg="http://www.w3.org/2000/svg"
   xmlns="http://www.w3.org/2000/svg"
   xmlns:sodipodi="http://sodipodi.sourceforge.net/DTD/sodipodi-0.dtd"
   xmlns:inkscape="http://www.inkscape.org/namespaces/inkscape"
   id="svg3036"
   version="1.1"
   inkscape:version="0.48.4 r9939"
   width="420"
   height="420"
   sodipodi:docname="veg.png">
  <metadata
     id="metadata3042">
    <rdf:RDF>
      <cc:Work
         rdf:about="">
        <dc:format>image/svg+xml</dc:format>
        <dc:type
           rdf:resource="http://purl.org/dc/dcmitype/StillImage" />
        <dc:title></dc:title>
      </cc:Work>
    </rdf:RDF>
  </metadata>
  <defs
     id="defs3040" />
  <sodipodi:namedview
     pagecolor="#ffffff"
     bordercolor="#666666"
     borderopacity="1"
     objecttolerance="10"
     gridtolerance="10"
     guidetolerance="10"
     inkscape:pageopacity="0"
     inkscape:pageshadow="2"
     inkscape:window-width="1920"
     inkscape:window-height="1021"
     id="namedview3038"
     showgrid="false"
     inkscape:zoom="0.69195449"
     inkscape:cx="185.08005"
     inkscape:cy="-73.733009"
     inkscape:window-x="0"
     inkscape:window-y="27"
     inkscape:window-maximized="1"
     inkscape:current-layer="svg3036" />
  <path
     inkscape:connector-curvature="0"
     id="path3060"
     d="m 328.27408,253.44411 c -2.12994,16.91637 -8.69965,34.72371 -18.12785,49.13596 -6.59796,10.08586 -22.17179,25.80491 -31.53195,31.82599 -17.63958,11.34695 -33.80664,16.43458 -54.70583,17.21543 -11.86209,0.44319 -15.60343,0.1918 -24.5,-1.64626 -22.91105,-4.73348 -32.04647,-10.37851 -49.81343,-30.78112 l -6.31343,-7.25 -5.80171,0 c -4.25532,0 -6.46832,-0.52435 -8.30266,-1.96725 -1.37552,-1.08198 -2.78621,-1.68198 -3.13486,-1.33333 -0.34865,0.34865 -0.63391,3.91068 -0.63391,7.91562 0,9.70484 3.49998,20.5512 10.07621,31.22595 6.36632,10.334 7.25266,14.92105 3.59072,18.58299 -3.42886,3.42886 -7.82146,3.32901 -14.18736,-0.32248 -10.15389,-5.82429 -17.39213,-16.41924 -20.13699,-29.47541 -1.7281,-8.21985 -1.35975,-13.66001 2.26805,-33.4968 4.75914,-26.02298 4.58136,-28.98126 -2.26721,-37.72576 -9.361517,-11.95313 -11.559137,-20.55358 -9.368104,-36.66235 2.447748,-17.99617 8.342194,-31.69193 17.915534,-41.62675 13.74523,-14.26426 31.33607,-20.90366 65.10915,-24.57451 29.14755,-3.16809 40.43435,-4.73283 47.88719,-6.63881 21.52435,-5.50461 33.28155,-16.56885 37.65762,-35.4381 1.41995,-6.12271 1.39688,-6.80404 -0.36399,-10.75002 -2.29622,-5.14567 -10.74823,-13.20163 -16.46359,-15.69212 -2.31948,-1.01073 -7.93702,-2.83016 -12.48343,-4.0432 -13.48702,-3.59849 -17.21114,-9.26909 -12.32538,-18.76751 4.41176,-8.57692 11.58989,-11.91352 23.0487,-10.71371 14.40602,1.5084 26.19996,7.68717 33.12052,17.35162 5.73217,8.00488 8.60283,18.30121 11.45476,41.08523 2.83498,22.64865 3.82481,28.14978 6.66952,37.0667 2.82817,8.86509 4.8091,12.58255 14.0744,26.41235 12.25687,18.29514 15.46856,26.38607 17.68863,44.56142 1.18339,9.68818 1.15772,16.54262 -0.0993,26.52623 z"
     style="fill:#d0d0d0" />
  <path
     inkscape:connector-curvature="0"
     id="path3058"
     d="m 323.92773,259.60997 c -4.29135,23.65077 -19.26353,49.74589 -36.91197,64.33414 -14.51744,12.00016 -31.03524,19.99957 -48.67855,23.57457 -11.3158,2.29287 -34.09541,1.55038 -45.42876,-1.48074 -17.14173,-4.58458 -26.04584,-10.35619 -39.03187,-25.3003 -10.49244,-12.07453 -12.14792,-13.25207 -16.81806,-11.96258 -7.84626,2.16646 -10.09433,-4.98124 -4.75757,-15.12658 10.78213,-20.49717 28.51967,-36.09129 78.83225,-69.30611 30.86655,-20.37714 40.24966,-27.28354 49.37789,-36.34437 7.55362,-7.49784 13.19833,-17.05389 10.07366,-17.05389 -0.45304,0 -4.63332,3.26386 -9.28951,7.25302 -12.32077,10.55573 -20.08938,16.22698 -52.36078,38.22443 -44.48043,30.31962 -59.3446,42.51708 -71.54745,58.71149 -19.90809,26.42003 -20.84284,49.4784 -3.13189,77.25684 3.45993,5.42666 4.00548,9.55921 1.5819,11.98279 -3.7594,3.7594 -12.39005,-0.0337 -20.15896,-8.85962 -9.74046,-11.06574 -11.40595,-24.85418 -6.29057,-52.07883 2.36568,-12.59046 3.10543,-19.07445 2.85666,-25.03915 -0.33089,-7.93377 -0.40193,-8.12707 -4.96134,-13.5 -9.129466,-10.75841 -11.489642,-18.44823 -9.929548,-32.35198 3.446338,-30.71421 16.927398,-49.48783 42.145308,-58.69123 10.99772,-4.01367 24.29028,-6.50888 47.40988,-8.89955 33.44348,-3.4582 44.14598,-5.70958 55.69452,-11.71587 8.39644,-4.36692 15.94471,-12.22838 19.94111,-20.76849 3.34183,-7.14132 5.55278,-17.64486 4.55282,-21.62903 -0.35252,-1.40455 -3.36581,-5.52743 -6.69619,-9.16196 -7.04622,-7.68971 -14.37546,-11.79178 -25.48449,-14.2633 -9.51698,-2.11733 -13.00498,-5.01819 -12.17603,-10.12642 0.69587,-4.28816 4.73889,-9.81118 8.67029,-11.84419 3.78936,-1.95955 14.87373,-1.9428 22.46301,0.034 15.51397,4.04088 24.65216,13.55329 28.94871,30.13425 0.85859,3.31339 2.7062,15.20626 4.10581,26.4286 2.82803,22.67576 5.89123,35.81307 10.4615,44.86672 1.67712,3.32236 7.04753,12.08122 11.93423,19.46412 9.87741,14.92294 12.39045,20.65091 14.58738,33.24903 1.80208,10.33389 1.81029,30.10478 0.0166,39.99023 z m -29.50625,32.33414 c -0.54283,0 -5.96107,4.59193 -12.04054,10.20429 -19.46738,17.97165 -26.56021,22.00121 -43.85383,24.91415 -13.33154,2.24557 -18.11866,3.59182 -18.11866,5.09537 0,0.70469 3.09304,0.89142 9.25,0.55843 13.17565,-0.71258 30.67497,-6.89339 42.75,-15.09943 6.54263,-4.44629 16.85051,-14.48418 20.14627,-19.61859 3.04115,-4.73776 3.44707,-6.05422 1.86676,-6.05422 z"
     style="fill:#a4a4a4" />
  <path
     inkscape:connector-curvature="0"
     id="path3056"
     d="m 322.82782,248.44411 c -2.72804,19.74038 -5.00898,27.66958 -11.94478,41.52356 -10.95355,21.87923 -27.46249,37.9525 -49.85198,48.53639 -15.34992,7.25617 -23.378,8.94005 -42.62261,8.94005 -14.11996,0 -17.71644,-0.33239 -24.93317,-2.30435 -17.95102,-4.90508 -27.24822,-11.12208 -40.59667,-27.14684 -3.23608,-3.8849 -7.49702,-8.18143 -9.46877,-9.54785 -3.15731,-2.18801 -3.95014,-2.34657 -6.64573,-1.3291 -4.47471,1.68901 -6.35566,0.57905 -6.35566,-3.7505 0,-7.71447 12.77048,-25.82181 27.14388,-38.48746 11.28844,-9.94723 22.47231,-18.03327 53.85612,-38.93844 15.125,-10.07497 31.1,-21.04208 35.5,-24.37136 16.68537,-12.62506 27.5,-26.12189 27.5,-34.32044 0,-1.81701 -0.29336,-3.30366 -0.65192,-3.30366 -0.35855,0 -4.74605,3.94816 -9.75,8.77369 -12.45606,12.01194 -21.20852,18.61656 -56.59808,42.70904 -32.28723,21.98048 -42.45208,29.51547 -55.70003,41.28925 -15.40238,13.68847 -28.06542,32.17812 -31.24346,45.61941 -1.65772,7.01123 -1.42566,20.39532 0.48122,27.75422 1.78388,6.8842 5.43144,14.76273 11.04657,23.85995 5.55535,9.00038 2.70419,13.24888 -6.04795,9.01204 -5.803,-2.80919 -11.05237,-8.7588 -14.80695,-16.78216 -4.65354,-9.94438 -4.86414,-20.70523 -0.83352,-42.5886 1.91608,-10.40294 3.10412,-20.1256 3.10412,-25.40338 l 0,-8.55021 -5.05411,-5.34398 c -2.77977,-2.93919 -6.25178,-7.93267 -7.71559,-11.09663 -2.341576,-5.0612 -2.644016,-6.89449 -2.516236,-15.25264 0.17703,-11.57958 3.699506,-26.22473 8.479286,-35.25373 4.46783,-8.43973 14.55782,-18.35707 23.30665,-22.90784 13.1066,-6.81749 25.60108,-9.67156 56.28887,-12.85787 41.33344,-4.29165 54.88438,-8.18581 66.84291,-19.20879 7.73968,-7.13419 13.315,-18.16069 14.90776,-29.48358 0.37045,-2.63351 1.35516,-5.32769 2.18824,-5.98708 1.09,-0.86275 1.30026,-1.98427 0.74989,-4 -0.76345,-2.79613 -0.76592,-2.79686 -1.39065,-0.40986 -0.58786,2.24611 -0.8915,2.04693 -5.00241,-3.28159 -7.54314,-9.7773 -14.0509,-13.87725 -28.4749,-17.93946 -9.16382,-2.58079 -12.60971,-4.73277 -12.60971,-7.87485 0,-2.90628 2.59382,-7.27579 6.04081,-10.17623 2.72893,-2.29625 3.99692,-2.61766 10.28592,-2.60725 16.0565,0.0266 28.70218,6.35584 35.34461,17.69029 4.22426,7.20816 6.30006,15.75939 8.93264,36.79784 4.54504,36.32221 6.59592,42.58568 21.07834,64.37419 10.73055,16.1439 13.72096,22.5034 15.87459,33.75937 1.51844,7.93621 2.56775,24.76289 1.86246,29.86644 z m -22.77443,34.5 c -0.74528,0 -7.49947,6.08782 -15.0093,13.52849 -14.71117,14.57569 -25.9209,22.74263 -36.13564,26.32693 -3.3,1.15795 -12.41828,3.2234 -20.26285,4.58989 -16.3935,2.85567 -21.9049,4.20808 -22.7551,5.58374 -2.51759,4.07354 24.69015,3.77418 38.80627,-0.42697 16.24859,-4.83581 30.01187,-13.07642 41.36439,-24.76645 6.30419,-6.49162 12.21494,-15.00537 14.1182,-20.33563 1.45319,-4.06981 1.44115,-4.5 -0.12597,-4.5 z m -21.75674,-122.5691 c -1.21495,-0.75088 -3.04729,1.46395 -2.53908,3.0691 0.17414,0.55 1.06682,1.1455 1.98375,1.32332 1.91487,0.37138 2.37497,-3.26782 0.55533,-4.39242 z m -157.45866,81.44483 c -0.86376,-2.40665 -1.93945,-6.17573 -2.39044,-8.37573 -0.71444,-3.4852 -0.83407,-2.99411 -0.92953,3.81574 -0.11396,8.12892 0.9284,11.68426 3.42561,11.68426 1.87332,0 1.84841,-1.67975 -0.10564,-7.12427 z m -5.39627,25.98505 c -2.53637,-3.04455 -2.55966,-1.23926 -0.0552,4.28002 1.96395,4.32815 1.97819,4.33684 2,1.21998 0.0121,-1.72656 -0.86307,-4.20156 -1.94477,-5.5 z m -0.0333,-52.36078 c -1.89691,0 -2.54499,4.1384 -0.9492,6.06121 0.66237,0.79811 1.56264,2.91084 2.00059,4.69495 0.59774,2.4351 0.75292,1.49863 0.62244,-3.75616 -0.13604,-5.4783 -0.49991,-7 -1.67383,-7 z m -4.01514,8.08716 c -1.08316,-1.0859 -2.98486,3.39149 -2.98486,7.0276 0,3.3557 2.81677,8.61651 4.16677,7.78217 1.26548,-0.78211 0.26147,-13.36274 -1.18191,-14.80977 z"
     style="fill:#767676" />
  <path
     inkscape:connector-curvature="0"
     id="path3054"
     d="m 321.95358,250.94411 c -0.2007,0.825 -0.91231,4.875 -1.58136,9 -0.66905,4.125 -2.54766,11.325 -4.1747,16 -18.87459,54.23262 -75.10008,83.62196 -127.78907,66.79599 -13.19418,-4.21349 -22.26592,-10.15413 -29.11292,-19.06461 l -3.25148,-4.23138 3.4322,3.09888 c 4.03009,3.6387 8.02101,6.40112 9.24782,6.40112 1.06046,0 -5.5691,-8.04644 -14.18675,-17.21878 -5.98859,-6.37407 -8.12887,-7.93408 -8.12887,-5.92502 0,0.47091 1.64333,3.05841 3.65184,5.75 l 3.65184,4.8938 -4.40184,-4.1022 c -7.32612,-6.82742 -8.71059,-7.50363 -12.30321,-6.0092 -4.33279,1.80232 -5.59863,1.05099 -5.59863,-3.32299 0,-10.68466 18.04569,-32.23546 42.08809,-50.26306 6.27655,-4.70631 23.33691,-16.44408 37.91191,-26.08392 28.5966,-18.91366 36.97319,-24.91738 46.898,-33.61301 7.1089,-6.22848 15.61372,-17.606 16.63438,-22.25303 0.56047,-2.5518 1.02366,-2.92985 2.98622,-2.43728 1.9649,0.49316 2.42575,0.11456 2.99051,-2.45679 0.45174,-2.05674 0.14652,-3.83515 -0.94378,-5.49916 -0.88629,-1.35265 -1.78293,-2.45936 -1.99252,-2.45936 -0.2096,0 -5.71173,5.33074 -12.22695,11.84609 -13.82953,13.8298 -22.31409,20.33449 -58.71995,45.01763 -33.22519,22.52666 -47.83325,33.60537 -59.92884,45.44983 -32.17102,31.50309 -37.05265,58.87518 -16.56532,92.88448 4.35745,7.23345 4.64846,10.11664 1.07251,10.62618 -3.01902,0.43017 -10.51852,-4.05244 -13.28888,-7.94306 l -2.21532,-3.11112 2.15096,0.68268 c 1.95868,0.62167 2.06485,0.45621 1.18767,-1.85095 -0.52981,-1.3935 -1.86148,-4.29423 -2.95926,-6.44607 -1.09779,-2.15184 -2.75068,-6.91693 -3.6731,-10.58909 -1.20701,-4.80512 -2.05964,-6.52988 -3.04173,-6.15302 -2.30422,0.88422 -1.65133,-8.91651 1.77583,-26.65716 1.72724,-8.94103 3.3267,-16.46839 3.55437,-16.72746 0.22767,-0.25907 0.81527,0.17832 1.30578,0.97198 1.46581,2.37173 2.49942,-1.58747 2.49942,-9.57397 0,-7.58697 -0.52886,-8.71882 -8.96698,-19.19097 -1.88969,-2.34521 -4.41797,-6.95771 -5.6184,-10.25 -1.20043,-3.2923 -2.76155,-5.986 -3.46916,-5.986 -2.199896,0 -2.552836,-5.14426 -0.973506,-14.18959 5.753486,-32.95206 22.681756,-48.82736 59.528046,-55.82527 3.025,-0.57451 17.425,-2.37783 32,-4.00736 28.95283,-3.23704 41.46001,-5.9737 51.32059,-11.22934 12.89052,-6.87057 21.49694,-18.14896 25.2497,-33.08876 1.13936,-4.53581 1.99528,-6.37406 2.55603,-5.48953 0.46368,0.73142 0.88157,2.22985 0.92865,3.32985 0.16928,3.95512 1.79871,-1.63722 1.87474,-6.43428 0.0931,-5.87502 -2.74569,-11.47469 -8.88064,-17.51738 -5.16758,-5.08988 -7.48747,-5.67325 -4.51396,-1.1351 2.15324,3.28626 1.09903,3.29814 -2.78331,0.0314 -4.71653,-3.9687 -11.67588,-7.12779 -20.85011,-9.46459 -4.62093,-1.17701 -9.18919,-2.84877 -10.15169,-3.71501 -2.69849,-2.42862 -2.15977,-6.72872 1.34274,-10.71786 4.31541,-4.91497 9.02239,-6.15153 17.86019,-4.692 15.22949,2.5151 24.13977,8.15179 29.75618,18.82392 4.10076,7.79213 5.8617,15.48072 8.31868,36.32093 3.95362,33.5348 6.66876,41.82035 20.5725,62.77911 10.91455,16.4528 13.41313,21.53344 15.84574,32.22089 1.54419,6.78426 2.99666,30.3105 2.0991,34 z m -15.55522,25 c -1.30999,0 -7.38133,5.57293 -22.90597,21.02558 -13.18419,13.12304 -24.35638,21.43869 -33.28027,24.77107 -2.91702,1.08928 -12.27867,3.17863 -20.80367,4.64301 -16.40294,2.8176 -26.72655,5.30888 -27.55514,6.64955 -1.85883,3.00766 15.37971,4.78145 29.05514,2.98968 11.27829,-1.4777 25.95939,-6.41846 36.14268,-12.16341 11.52813,-6.50365 26.59531,-21.75682 32.14895,-32.54581 2.65219,-5.15236 4.92191,-8.323 6.19673,-8.65638 1.46865,-0.38406 2.01164,-1.36109 2.01164,-3.61967 0,-1.70149 -0.45454,-3.09362 -1.01009,-3.09362 z m -77.48991,-199 c -0.825,0 -1.5,0.64844 -1.5,1.44098 0,1.67065 1.42728,2.79841 2.36052,1.86517 1.19516,-1.19516 0.64571,-3.30615 -0.86052,-3.30615 z m -107.8568,159.5 c -0.88466,-3.85 -1.61629,-9.95149 -1.62584,-13.55887 -0.0182,-6.88025 -1.63958,-10.68381 -4.14451,-9.72258 -2.21044,0.84823 -7.87285,12.67991 -7.87285,16.45043 0,4.75263 5.06819,14.25646 9.95898,18.67499 6.56974,5.93537 7.25982,3.7169 3.68422,-11.84397 z"
     style="fill:#606060" />
  <path
     inkscape:connector-curvature="0"
     id="path3052"
     d="m 318.91541,261.31864 c -6.53657,31.49449 -25.61605,57.84881 -52.93807,73.1229 -9.19752,5.14178 -25.54452,10.19797 -37.31889,11.54288 -22.01682,2.51483 -49.08544,-3.95637 -60.75995,-14.52566 -2.19453,-1.98677 -3.00713,-3.14034 -1.80579,-2.56348 6.38996,3.06831 4.15979,-0.43799 -9.66865,-15.20117 -7.54357,-8.05347 -12.15697,-11.16673 -10.62271,-7.16851 0.47922,1.24884 -0.11894,1.13291 -2.84379,-0.55114 -3.20524,-1.98095 -3.66037,-2.02418 -6.3993,-0.60782 -2.43369,1.25851 -3.1404,1.29374 -4.04671,0.2017 -1.58409,-1.90872 0.81075,-9.15356 5.2069,-15.75181 12.73952,-19.12096 26.58144,-30.67858 76.72247,-64.06112 41.64127,-27.72364 52.69736,-37.14187 59.28633,-50.50361 1.9676,-3.99008 3.6516,-6.20808 4.59555,-6.05279 2.46959,0.40626 3.79603,-4.89695 2.01921,-8.07297 -2.60939,-4.66423 -4.84522,-3.89595 -11.97987,4.11654 -12.95993,14.55454 -21.50507,21.29325 -60.45369,47.67392 -34.46181,23.34167 -47.42347,33.08325 -59.71028,44.87643 -12.02818,11.54493 -18.41859,19.43874 -23.66052,29.22685 -5.63533,10.52269 -7.4706,17.62839 -7.4706,28.92433 0,13.58448 3.14977,23.0134 13.12357,39.28578 2.56139,4.17893 3.24327,6.08878 2.45527,6.87678 -2.59335,2.59335 -12.91113,-3.27701 -12.47953,-7.1003 0.14186,-1.25657 -1.0818,-5.04713 -2.71924,-8.42347 -1.63743,-3.37633 -3.70206,-9.40129 -4.58806,-13.38879 -0.88601,-3.9875 -2.02485,-7.25 -2.53076,-7.25 -2.65868,0 2.56893,-34.30279 5.57487,-36.5815 2.23153,-1.69164 3.50528,-6.05793 3.50528,-12.01572 0,-6.59075 -1.67103,-10.89958 -6.22145,-16.04234 -4.499,-5.08464 -7.16244,-9.71999 -9.20682,-16.02317 -0.92097,-2.8395 -2.32637,-5.41287 -3.12311,-5.71861 -1.900886,-0.72944 -1.860446,-5.70917 0.12441,-15.31849 6.20915,-30.06042 22.96654,-45.39335 56.57904,-51.76953 4.35911,-0.82691 16.79567,-2.42445 27.6368,-3.55008 42.39303,-4.40166 56.55552,-8.57273 68.9683,-20.31223 6.41186,-6.06407 9.69955,-11.36871 13.40913,-21.63544 1.49699,-4.14309 2.74697,-6.74539 2.77774,-5.78289 0.0698,2.18147 1.63515,2.28899 2.44897,0.16821 1.20906,-3.15076 0.58585,-12.55859 -1.04122,-15.71787 -2.64467,-5.13515 -6.13898,-9.28086 -10.18727,-12.08632 -4.54386,-3.14891 -5.59771,-3.29197 -4.13643,-0.56153 1.00259,1.87336 0.74309,1.82815 -2.97345,-0.518 -5.05397,-3.19043 -11.87018,-5.87675 -19.05464,-7.50958 -7.68471,-1.74653 -10,-3.40149 -10,-7.14796 0,-2.16594 1.00666,-4.08361 3.4,-6.47695 3.26179,-3.26179 3.70465,-3.4 10.89466,-3.4 19.05501,0 32.33374,9.34421 37.62551,26.47698 1.06689,3.45418 3.12372,15.67243 4.57072,27.15167 4.49591,35.66638 6.71149,42.44423 20.83747,63.74554 11.30397,17.04584 12.01815,18.39058 14.74013,27.7542 2.80689,9.65572 3.64106,37.63364 1.43847,48.24614 z m -11.11395,15.20726 c -0.33384,-0.86999 -1.3202,-1.58179 -2.1919,-1.58179 -0.8717,0 -9.48605,7.8167 -19.14301,17.37044 -17.6811,17.49212 -26.84383,24.60347 -36.7129,28.49349 -2.70749,1.0672 -13.20101,3.36413 -23.31892,5.10429 -22.48262,3.86676 -33.30282,6.36141 -33.77827,7.78775 -0.69294,2.07883 11.02072,3.74421 26.25199,3.73234 12.52276,-0.01 16.40377,-0.39298 23.5,-2.32045 25.87424,-7.02793 47.63978,-23.64437 58.09118,-44.34849 1.58086,-3.13166 4.00706,-6.8267 5.39155,-8.21119 2.64522,-2.64522 2.8997,-3.44802 1.91028,-6.02639 z M 228.58012,77.12456 c -1.41147,-0.20769 -2.17167,0.20922 -2.17167,1.19098 0,1.9446 1.67512,2.96722 3.63105,2.21666 2.12209,-0.81433 1.17764,-3.01962 -1.45938,-3.40764 z m -92.61265,221.81955 c -1.79236,0 -2.89201,1.6522 -2.02901,3.04856 0.44301,0.7168 1.09446,0.67806 2.05902,-0.12245 1.82058,-1.51095 1.80607,-2.92611 -0.03,-2.92611 z m -14.21809,-59 c -0.75032,-2.475 -1.6457,-8.775 -1.98973,-14 -0.74635,-11.33529 -1.50863,-13.23381 -5.14337,-12.80993 -3.23904,0.37773 -6.59961,5.84236 -8.34264,13.56597 -1.16673,5.16998 -1.1192,5.39104 2.90254,13.5 2.24878,4.53418 5.46797,9.56275 7.15375,11.1746 l 3.06505,2.93064 2.48675,-2.33618 c 2.65031,-2.48983 2.64624,-2.85974 -0.13235,-12.0251 z"
     style="fill:#ece419;fill-opacity:1" />
  <path
     inkscape:connector-curvature="0"
     id="path3050"
     d="m 318.91541,261.31864 c -5.48326,26.41943 -20.31644,50.09582 -40.93807,65.34441 -20.05117,14.82677 -46.06819,22.06169 -69.52727,19.33443 -10.45236,-1.21515 -22.29834,-4.10052 -27.16323,-6.61626 -3.88512,-2.00907 -3.62304,-2.4815 0.71252,-1.2844 4.69386,1.29604 6.27841,0.61449 5.69285,-2.44864 -1.07437,-5.62021 4.65577,-7.78706 33.56633,-12.69308 10.09254,-1.71268 20.8042,-4.03216 23.80367,-5.1544 9.7589,-3.65127 20.15598,-11.61826 35.916,-27.5214 14.46713,-14.59851 19.15483,-18.0106 21.50924,-15.65619 1.42291,1.42291 -32.15555,34.14074 -40.69504,39.65199 -10.22942,6.60192 -14.77022,8.09643 -35.35768,11.63723 -22.48262,3.86676 -33.30282,6.36141 -33.77827,7.78775 -0.69294,2.07883 11.02072,3.74421 26.25199,3.73234 12.52276,-0.01 16.40377,-0.39298 23.5,-2.32045 25.90731,-7.03691 47.63826,-23.64136 58.12284,-44.41121 1.59827,-3.16616 3.55864,-5.75665 4.35637,-5.75665 2.25657,0 3.27501,-2.79758 5.99518,-16.46846 3.46206,-17.39944 4.09235,-29.59678 2.17559,-42.10181 -2.13412,-13.92308 -4.49241,-19.52894 -14.70879,-34.964 -11.20711,-16.93187 -11.95177,-18.44137 -16.26247,-32.96573 -4.07685,-13.73641 -5.31668,-20.93519 -6.63078,-38.5 -1.42348,-19.0269 -6.87735,-32.9663 -15.27967,-39.05291 -8.28371,-6.00069 -23.6412,-8.69833 -31.30039,-5.49812 -4.46539,1.86576 -4.49041,0.37356 -0.0679,-4.04897 3.26179,-3.26179 3.70465,-3.4 10.89466,-3.4 19.05501,0 32.33374,9.34421 37.62551,26.47698 1.06689,3.45418 3.12372,15.67243 4.57072,27.15167 4.49591,35.66638 6.71149,42.44423 20.83747,63.74554 11.30397,17.04584 12.01815,18.39058 14.74013,27.7542 2.80689,9.65572 3.64106,37.63364 1.43847,48.24614 z m -46.44757,-78.78037 c -7.3423,12.80113 -19.16413,22.68772 -57.55939,48.13687 -48.22438,31.96409 -64.48775,45.30976 -76.5106,62.78437 -2.80335,4.07454 -4.9894,5.7014 -4.9894,3.71313 0,-0.4243 1.6875,-3.32519 3.75,-6.44642 13.15104,-19.90175 27.09898,-31.68319 75.15713,-63.48314 39.18645,-25.92957 51.25091,-35.65869 59.08417,-47.64714 4.73598,-7.24822 5.5798,-4.92372 1.06809,2.94233 z m -4.42864,-16.89006 c -12.96452,14.39453 -21.48824,21.09496 -60.13075,47.26829 -34.46181,23.34167 -47.42347,33.08325 -59.71028,44.87643 -12.02818,11.54493 -18.41859,19.43874 -23.66052,29.22685 -5.63533,10.52269 -7.4706,17.62839 -7.4706,28.92433 0,13.55688 3.15356,23.01825 13.05996,39.18271 4.56881,7.45502 3.12932,9.85846 -3.76822,6.29161 -1.92463,-0.99527 -2.95034,-2.29843 -2.95034,-3.74843 0,-1.22252 -1.81826,-5.82346 -4.04058,-10.22432 -3.68963,-7.30659 -7.23821,-19.85436 -8.66689,-30.64606 -0.59591,-4.50129 2.2347,-18.67544 4.15297,-20.79581 0.77607,-0.85784 2.99229,-5.30935 4.92495,-9.89225 4.34116,-10.2942 9.34154,-17.06886 21.15945,-28.66745 12.83173,-12.59358 25.36019,-22.12407 60.4701,-46 36.56056,-24.86243 48.83942,-34.30079 58.86798,-45.24994 7.79253,-8.50786 9.98947,-9.98884 12.62765,-8.51244 1.2477,0.69824 0.33461,2.19347 -4.86488,7.96648 z m -2.49551,-28.7041 c -3.9309,9.98697 -11.21774,18.23006 -21.63524,24.47443 -11.36113,6.80999 -25.0152,9.92996 -59.23502,13.53526 -48.87305,5.14911 -61.68095,10.86535 -78.4787,35.02548 -3.99087,5.74005 0.55266,-4.61526 4.98615,-11.36409 6.83296,-10.40142 17.14114,-17.64033 32.12373,-22.55886 9.28763,-3.04897 19.78826,-4.83656 41.89271,-7.13166 33.17999,-3.44507 45.41628,-6.03568 57.65088,-12.20553 7.79264,-3.9298 16.5408,-12.38514 20.50052,-19.81434 4.36983,-8.19865 5.42998,-8.17966 2.19497,0.0393 z m -20.68783,-50 c -2.24843,0 -14.54119,-3.34273 -14.9954,-4.07765 -0.88557,-1.43288 1.75175,-1.10321 8.94265,1.11783 5.63877,1.74164 8.12992,2.95982 6.05275,2.95982 z M 136.50904,305.39209 c -2.55285,1.32013 -3.0456,1.3232 -4.12245,0.0257 -0.67266,-0.81051 -1.05543,-1.49959 -0.85058,-1.53128 3.23371,-0.50024 7.87244,-0.74787 7.87244,-0.42025 0,0.23458 -1.30474,1.10121 -2.89941,1.92585 z m -16.76726,-48.11465 c -1.60213,1.60214 -6.11075,0.50779 -8.58316,-2.08333 -2.5342,-2.65587 -7.72042,-12.60365 -7.7404,-14.84699 -0.005,-0.60334 -0.91591,-2.14178 -2.02342,-3.41875 -2.202926,-2.54 -2.143436,-3.95194 0.68518,-16.26172 1.17392,-5.10875 1.85716,-6.52866 2.77496,-5.76695 0.83997,0.69711 1.81244,0.56042 3.13555,-0.44073 3.60928,-2.73101 4.3671,-1.62915 1.88115,2.73514 -1.33146,2.3375 -2.95259,6.61522 -3.6025,9.50604 -1.16328,5.17431 -1.11703,5.38646 2.9737,13.64191 2.35005,4.7426 5.67818,9.72292 7.66049,11.46341 3.50163,3.07447 4.09399,4.21643 2.83845,5.47197 z"
     style="fill:#262626" />
  <g
     id="g3872"
     inkscape:export-filename="/home/raven/work/projects/enumbers/res/drawable-xxhdpi/veg_yellow_small.png"
     inkscape:export-xdpi="18.310488"
     inkscape:export-ydpi="18.310488">
    <path
       style="fill:#ece419;fill-opacity:1"
       d="m 318.91541,261.31864 c -6.53657,31.49449 -25.61605,57.84881 -52.93807,73.1229 -7.81573,4.36931 -25.37211,10.1847 -33.06889,10.95378 -5.8757,0.58711 -5.81356,0.54964 3,-1.80896 17.24655,-4.61536 29.35998,-10.64592 42.122,-20.97007 18.96939,-15.34574 30.07265,-32.09299 35.28809,-53.22568 3.59024,-14.54746 4.56717,-26.85271 3.1317,-39.4465 -1.95055,-17.11267 -4.76175,-24.07241 -17.17638,-42.52389 -13.95229,-20.73686 -16.96199,-30.24903 -21.34981,-67.47611 -3.54941,-30.11385 -9.83491,-41.31746 -26.09247,-46.5086 -6.23425,-1.99064 -16.86281,-2.55689 -21.92313,-1.16799 l -3,0.8234 2.80576,-2.5734 c 2.4814,-2.2759 3.65421,-2.57341 10.14467,-2.57341 18.88806,0 32.19644,9.404 37.46974,26.47698 1.06689,3.45418 3.12372,15.67243 4.57072,27.15167 4.49591,35.66638 6.71149,42.44423 20.83747,63.74554 11.30397,17.04584 12.01815,18.39058 14.74013,27.7542 2.80689,9.65572 3.64106,37.63364 1.43847,48.24614 z m -33.75696,32.30681 c -20.3715,20.12295 -31.6811,27.70608 -44.25,29.66981 -3.17738,0.49643 -2.66325,0.15 2.5,-1.68454 12.79812,-4.54727 20.47091,-10.10027 39,-28.22532 12.25881,-11.9915 19,-17.72565 19,-16.16167 0,0.1925 -7.3125,7.57327 -16.25,16.40172 z m 5.86461,13.31866 c -16.00856,21.5955 -43.4896,34.1861 -74.61461,34.18513 -13.09631,-4.1e-4 -20.42738,-1.45196 -24.09456,-4.77071 -2.28185,-2.06504 -2.39688,-3.01186 -0.45637,-3.7565 0.93804,-0.35996 1.26464,-0.0754 0.92611,0.80677 -0.91606,2.38721 9.79155,4.03635 26.12482,4.02362 12.52276,-0.01 16.40377,-0.39298 23.5,-2.32045 17.27016,-4.6909 32.49329,-13.5015 44.75,-25.8997 3.9875,-4.03352 7.23884,-7.20644 7.22521,-7.05092 -0.0136,0.15552 -1.52591,2.30776 -3.3606,4.78276 z M 266.80812,167.05325 c -12.35629,13.44054 -21.21644,20.33966 -58.89967,45.86325 -34.46181,23.34167 -47.42347,33.08325 -59.71028,44.87643 -12.02818,11.54493 -18.41859,19.43874 -23.66052,29.22685 -5.63533,10.52269 -7.4706,17.62839 -7.4706,28.92433 0,13.58448 3.14977,23.0134 13.12357,39.28578 3.86016,6.29789 3.49609,8.50284 -1.20895,7.32195 -1.9154,-0.48073 -2.57322,-1.29211 -2.57322,-3.17389 0,-1.39043 -1.76477,-5.76935 -3.9217,-9.73094 -6.18478,-11.35943 -8.48512,-20.30392 -8.41052,-32.7029 0.12879,-21.40596 8.41183,-37.30299 30.48104,-58.5 13.39333,-12.86402 23.8612,-20.80214 59.175,-44.87432 36.54247,-24.90972 42.66661,-29.56608 56.31032,-42.81429 10.23425,-9.93759 12.36586,-11.71356 12.36586,-10.3027 0,0.27978 -2.52015,3.24998 -5.60033,6.60045 z m -8.14967,28.19559 c -9.67322,9.47517 -15.53312,13.80699 -45.25,33.45013 -31.41069,20.76277 -49.64832,34.22143 -61.64808,45.49388 -7.14505,6.71198 -7.95054,7.26963 -4.31779,2.9893 10.15114,-11.96068 26.51629,-24.55853 64.873,-49.93907 28.22662,-18.67748 38.22938,-25.91526 47.40485,-34.30113 7.79533,-7.12449 7.16198,-5.7487 -1.06198,2.30689 z m -6.10232,-43.35717 c -11.08087,11.08087 -28.67226,16.34135 -67.14768,20.07968 -35.89847,3.48795 -55.01001,9.18754 -67.41186,20.10409 -3.25233,2.86281 -4.49348,3.56031 -3.70124,2.08001 1.64152,-3.06723 10.36711,-9.80598 17.09415,-13.20177 12.57806,-6.34939 24.26099,-8.96117 53.80782,-12.02901 41.12432,-4.26993 56.28586,-8.55588 67.79505,-19.16468 5.94558,-5.48044 5.62902,-3.93358 -0.43624,2.13168 z m -51.71911,178.98101 c -3.07106,0.68727 -5.77635,1.05698 -6.01176,0.82157 -0.23541,-0.23541 2.05202,-1.02297 5.08319,-1.75014 3.03117,-0.72717 5.73646,-1.09687 6.01177,-0.82157 0.2753,0.27531 -2.01214,1.06287 -5.0832,1.75014 z m -84.65066,-76.92857 c -3.98996,0 -8.40628,-5.99148 -11.7647,-15.96079 -1.99902,-5.93398 -2.01577,-6.39889 -0.43374,-12.03719 0.91418,-3.2581 2.72262,-6.87664 4.06878,-8.14129 l 2.42319,-2.27648 -1.99072,4.50036 c -3.63629,8.22043 -3.5945,11.57883 0.24254,19.49085 1.88724,3.8915 4.88318,8.729 6.65763,10.75 3.22429,3.67226 3.22479,3.67454 0.79702,3.67454 z"
       id="path3048"
       inkscape:connector-curvature="0" />
  </g>
</svg>
